<?xml version="1.0" encoding="UTF-8"?>
<svg xmlns="http://www.w3.org/2000/svg" width="2048" height="2048" viewBox="0 0 1254 1254" role="img" aria-label="Cine Flow logo">
  <rect width="100%" height="100%" fill="#000000"/>
  <path d="M 621 88 L 620 89 L 595 89 L 594 90 L 582 90 L 581 91 L 572 91 L 571 92 L 564 92 L 563 93 L 557 93 L 556 94 L 550 94 L 549 95 L 544 95 L 543 96 L 538 96 L 537 97 L 532 97 L 531 98 L 527 98 L 526 99 L 517 100 L 516 101 L 513 101 L 512 102 L 508 102 L 507 103 L 504 103 L 503 104 L 500 104 L 499 105 L 496 105 L 495 106 L 488 107 L 487 108 L 485 108 L 484 109 L 481 109 L 477 111 L 474 111 L 473 112 L 471 112 L 470 113 L 468 113 L 467 114 L 465 114 L 464 115 L 462 115 L 461 116 L 459 116 L 458 117 L 456 117 L 455 118 L 453 118 L 452 119 L 447 120 L 444 122 L 439 123 L 434 126 L 432 126 L 429 128 L 427 128 L 424 130 L 422 130 L 398 142 L 396 142 L 384 148 L 382 150 L 373 154 L 371 156 L 359 162 L 351 168 L 348 169 L 346 171 L 345 171 L 343 173 L 342 173 L 340 175 L 339 175 L 337 177 L 333 179 L 330 182 L 326 184 L 323 187 L 322 187 L 319 190 L 318 190 L 315 193 L 314 193 L 311 196 L 310 196 L 306 200 L 305 200 L 301 204 L 300 204 L 295 209 L 294 209 L 277 225 L 276 225 L 250 251 L 250 252 L 241 261 L 241 262 L 235 268 L 235 269 L 226 279 L 226 280 L 223 283 L 223 284 L 218 289 L 216 293 L 213 296 L 213 297 L 210 300 L 208 304 L 205 307 L 205 308 L 199 316 L 198 319 L 195 322 L 194 325 L 192 327 L 191 330 L 187 335 L 186 338 L 184 340 L 183 343 L 181 345 L 179 350 L 177 352 L 159 388 L 159 390 L 153 401 L 153 403 L 151 406 L 151 408 L 149 411 L 149 413 L 145 421 L 145 423 L 144 424 L 143 429 L 141 432 L 141 434 L 140 435 L 140 437 L 139 438 L 139 440 L 138 441 L 138 443 L 137 444 L 137 446 L 136 447 L 136 449 L 135 450 L 135 452 L 133 456 L 133 459 L 132 460 L 132 462 L 130 466 L 130 469 L 129 470 L 129 473 L 128 474 L 128 477 L 127 478 L 127 481 L 126 482 L 126 485 L 125 486 L 125 489 L 124 490 L 124 493 L 123 494 L 123 497 L 122 498 L 122 502 L 121 503 L 121 507 L 120 508 L 119 517 L 118 518 L 118 523 L 117 524 L 117 530 L 116 531 L 116 536 L 115 537 L 115 544 L 114 545 L 114 552 L 113 553 L 113 563 L 112 564 L 112 576 L 111 577 L 111 595 L 110 596 L 110 625 L 111 626 L 111 646 L 112 647 L 112 659 L 113 660 L 113 668 L 114 669 L 114 676 L 115 677 L 115 683 L 116 684 L 116 690 L 117 691 L 117 696 L 118 697 L 118 701 L 119 702 L 119 706 L 120 707 L 120 712 L 121 713 L 121 716 L 122 717 L 122 721 L 123 722 L 123 725 L 124 726 L 124 730 L 125 731 L 125 734 L 126 735 L 126 738 L 127 739 L 128 746 L 129 747 L 129 749 L 130 750 L 130 753 L 132 757 L 132 760 L 133 761 L 133 763 L 134 764 L 134 766 L 135 767 L 135 769 L 137 773 L 137 776 L 138 777 L 138 779 L 140 782 L 140 784 L 141 785 L 141 787 L 142 788 L 143 793 L 145 796 L 146 801 L 149 806 L 149 808 L 151 811 L 151 813 L 153 816 L 153 818 L 157 825 L 157 827 L 174 861 L 176 863 L 180 872 L 182 874 L 186 882 L 190 887 L 194 895 L 199 901 L 199 902 L 201 904 L 201 905 L 203 907 L 203 908 L 205 910 L 207 914 L 210 917 L 212 921 L 215 924 L 217 928 L 225 937 L 225 938 L 232 946 L 232 947 L 243 959 L 243 960 L 255 972 L 255 973 L 278 996 L 279 996 L 288 1005 L 289 1005 L 296 1012 L 297 1012 L 301 1016 L 302 1016 L 312 1025 L 313 1025 L 316 1028 L 317 1028 L 328 1037 L 332 1039 L 335 1042 L 336 1042 L 338 1044 L 339 1044 L 341 1046 L 342 1046 L 344 1048 L 345 1048 L 356 1056 L 359 1057 L 364 1061 L 369 1063 L 374 1067 L 383 1071 L 385 1073 L 402 1081 L 404 1083 L 406 1083 L 417 1089 L 419 1089 L 426 1093 L 428 1093 L 431 1095 L 433 1095 L 438 1098 L 440 1098 L 448 1102 L 450 1102 L 456 1105 L 458 1105 L 459 1106 L 461 1106 L 462 1107 L 464 1107 L 465 1108 L 467 1108 L 468 1109 L 470 1109 L 471 1110 L 473 1110 L 474 1111 L 476 1111 L 480 1113 L 483 1113 L 484 1114 L 486 1114 L 490 1116 L 493 1116 L 494 1117 L 497 1117 L 498 1118 L 501 1118 L 502 1119 L 505 1119 L 506 1120 L 509 1120 L 510 1121 L 513 1121 L 514 1122 L 517 1122 L 518 1123 L 521 1123 L 522 1124 L 526 1124 L 527 1125 L 531 1125 L 532 1126 L 537 1126 L 538 1127 L 542 1127 L 543 1128 L 547 1128 L 548 1129 L 554 1129 L 555 1130 L 561 1130 L 562 1131 L 568 1131 L 569 1132 L 577 1132 L 578 1133 L 588 1133 L 589 1134 L 607 1134 L 608 1135 L 635 1135 L 636 1134 L 659 1134 L 660 1133 L 671 1133 L 672 1132 L 681 1132 L 682 1131 L 689 1131 L 690 1130 L 695 1130 L 696 1129 L 702 1129 L 703 1128 L 708 1128 L 709 1127 L 714 1127 L 715 1126 L 719 1126 L 720 1125 L 729 1124 L 730 1123 L 733 1123 L 734 1122 L 737 1122 L 738 1121 L 741 1121 L 742 1120 L 745 1120 L 746 1119 L 749 1119 L 750 1118 L 757 1117 L 758 1116 L 760 1116 L 761 1115 L 764 1115 L 765 1114 L 767 1114 L 771 1112 L 774 1112 L 775 1111 L 777 1111 L 778 1110 L 780 1110 L 781 1109 L 783 1109 L 784 1108 L 789 1107 L 792 1105 L 794 1105 L 795 1104 L 800 1103 L 803 1101 L 808 1100 L 818 1095 L 820 1095 L 830 1090 L 832 1090 L 866 1073 L 868 1071 L 875 1068 L 877 1066 L 887 1061 L 892 1057 L 895 1056 L 897 1054 L 898 1054 L 900 1052 L 901 1052 L 903 1050 L 904 1050 L 906 1048 L 907 1048 L 909 1046 L 910 1046 L 912 1044 L 916 1042 L 923 1036 L 924 1036 L 930 1031 L 931 1031 L 940 1023 L 941 1023 L 944 1020 L 945 1020 L 957 1009 L 958 1009 L 966 1001 L 967 1001 L 1000 968 L 1000 967 L 1009 958 L 1009 957 L 1014 952 L 1014 951 L 1019 946 L 1019 945 L 1027 936 L 1027 935 L 1030 932 L 1030 931 L 1039 920 L 1039 919 L 1041 917 L 1043 913 L 1046 910 L 1046 909 L 1048 907 L 1048 906 L 1056 895 L 1057 892 L 1061 887 L 1063 882 L 1065 880 L 1070 870 L 1072 868 L 1078 855 L 1080 853 L 1088 837 L 1088 835 L 1090 833 L 1090 831 L 1097 817 L 1097 815 L 1100 810 L 1100 808 L 1102 805 L 1103 800 L 1107 792 L 1107 790 L 1108 789 L 1108 787 L 1109 786 L 1109 784 L 1110 783 L 1110 781 L 1111 780 L 1111 778 L 1112 777 L 1112 775 L 1113 774 L 1113 772 L 1114 771 L 1114 769 L 1116 765 L 1116 762 L 1117 761 L 1117 759 L 1119 755 L 1120 748 L 1122 744 L 1122 741 L 1123 740 L 1123 737 L 1124 736 L 1124 733 L 1125 732 L 1125 729 L 1126 728 L 1127 719 L 1128 718 L 1128 715 L 1129 714 L 1129 711 L 1130 710 L 1130 706 L 1131 705 L 1131 700 L 1132 699 L 1132 694 L 1133 693 L 1133 688 L 1134 687 L 1134 681 L 1135 680 L 1135 673 L 1136 672 L 1136 664 L 1137 663 L 1137 654 L 1138 653 L 1138 638 L 1139 637 L 1139 585 L 1138 584 L 1138 570 L 1137 569 L 1137 559 L 1136 558 L 1136 551 L 1135 550 L 1135 542 L 1134 541 L 1134 535 L 1133 534 L 1133 529 L 1132 528 L 1132 522 L 1131 521 L 1131 517 L 1130 516 L 1130 512 L 1129 511 L 1129 506 L 1128 505 L 1128 502 L 1127 501 L 1126 492 L 1125 491 L 1125 488 L 1124 487 L 1124 484 L 1123 483 L 1122 476 L 1120 472 L 1120 469 L 1118 465 L 1118 462 L 1116 458 L 1116 455 L 1115 454 L 1115 452 L 1114 451 L 1114 449 L 1113 448 L 1113 446 L 1112 445 L 1112 443 L 1111 442 L 1111 440 L 1110 439 L 1110 437 L 1109 436 L 1109 434 L 1108 433 L 1108 431 L 1107 430 L 1106 425 L 1104 422 L 1104 420 L 1102 417 L 1102 415 L 1100 412 L 1100 410 L 1098 407 L 1098 405 L 1095 400 L 1095 398 L 1092 393 L 1092 391 L 1073 353 L 1071 351 L 1069 346 L 1067 344 L 1065 339 L 1063 337 L 1062 334 L 1060 332 L 1056 324 L 1054 322 L 1054 321 L 1052 319 L 1052 318 L 1050 316 L 1050 315 L 1048 313 L 1048 312 L 1046 310 L 1046 309 L 1044 307 L 1042 303 L 1036 296 L 1036 295 L 1031 289 L 1031 288 L 1027 284 L 1027 283 L 1023 279 L 1023 278 L 1019 274 L 1019 273 L 1014 268 L 1014 267 L 1008 261 L 1008 260 L 999 251 L 999 250 L 970 221 L 969 221 L 962 214 L 961 214 L 949 203 L 948 203 L 944 199 L 943 199 L 939 195 L 938 195 L 927 186 L 926 186 L 920 181 L 916 179 L 913 176 L 912 176 L 904 170 L 901 169 L 896 165 L 893 164 L 888 160 L 883 158 L 881 156 L 876 154 L 874 152 L 863 147 L 861 145 L 859 144 L 857 144 L 851 141 L 849 139 L 847 139 L 838 134 L 836 134 L 829 130 L 827 130 L 822 127 L 820 127 L 812 123 L 810 123 L 804 120 L 799 119 L 796 117 L 794 117 L 793 116 L 791 116 L 790 115 L 788 115 L 787 114 L 785 114 L 784 113 L 782 113 L 778 111 L 775 111 L 774 110 L 772 110 L 768 108 L 765 108 L 761 106 L 758 106 L 757 105 L 754 105 L 753 104 L 750 104 L 749 103 L 746 103 L 745 102 L 742 102 L 741 101 L 737 101 L 736 100 L 732 100 L 731 99 L 727 99 L 726 98 L 717 97 L 716 96 L 711 96 L 710 95 L 705 95 L 704 94 L 699 94 L 698 93 L 691 93 L 690 92 L 683 92 L 682 91 L 674 91 L 673 90 L 662 90 L 661 89 L 637 89 L 636 88 Z
M 599 96 L 657 96 L 658 97 L 671 97 L 672 98 L 681 98 L 682 99 L 689 99 L 690 100 L 696 100 L 697 101 L 703 101 L 704 102 L 709 102 L 710 103 L 715 103 L 716 104 L 721 104 L 722 105 L 731 106 L 732 107 L 735 107 L 736 108 L 739 108 L 740 109 L 744 109 L 745 110 L 748 110 L 749 111 L 756 112 L 760 114 L 767 115 L 768 116 L 770 116 L 771 117 L 773 117 L 774 118 L 776 118 L 777 119 L 779 119 L 780 120 L 782 120 L 783 121 L 785 121 L 786 122 L 788 122 L 789 123 L 791 123 L 792 124 L 794 124 L 795 125 L 800 126 L 803 128 L 808 129 L 811 131 L 813 131 L 816 133 L 818 133 L 823 136 L 825 136 L 830 139 L 832 139 L 845 146 L 847 146 L 859 152 L 861 154 L 870 158 L 872 160 L 879 163 L 881 165 L 889 169 L 900 177 L 903 178 L 909 183 L 910 183 L 912 185 L 916 187 L 919 190 L 923 192 L 926 195 L 927 195 L 930 198 L 931 198 L 935 202 L 936 202 L 940 206 L 941 206 L 945 210 L 946 210 L 959 222 L 960 222 L 971 233 L 972 233 L 1000 262 L 1000 263 L 1012 276 L 1012 277 L 1016 281 L 1016 282 L 1020 286 L 1020 287 L 1024 291 L 1024 292 L 1030 299 L 1032 303 L 1035 306 L 1035 307 L 1037 309 L 1039 313 L 1042 316 L 1042 317 L 1046 322 L 1047 325 L 1049 327 L 1049 328 L 1053 333 L 1054 336 L 1056 338 L 1057 341 L 1059 343 L 1062 350 L 1064 352 L 1065 355 L 1067 357 L 1085 393 L 1085 395 L 1089 402 L 1089 404 L 1092 409 L 1092 411 L 1094 414 L 1095 419 L 1099 427 L 1099 429 L 1100 430 L 1100 432 L 1101 433 L 1101 435 L 1102 436 L 1103 441 L 1106 447 L 1106 450 L 1107 451 L 1107 453 L 1109 457 L 1109 460 L 1111 464 L 1111 467 L 1112 468 L 1112 470 L 1114 474 L 1114 477 L 1115 478 L 1115 481 L 1116 482 L 1116 485 L 1117 486 L 1117 489 L 1118 490 L 1118 494 L 1119 495 L 1119 498 L 1120 499 L 1120 503 L 1121 504 L 1121 507 L 1122 508 L 1122 512 L 1123 513 L 1123 518 L 1124 519 L 1124 524 L 1125 525 L 1125 530 L 1126 531 L 1126 537 L 1127 538 L 1127 544 L 1128 545 L 1128 552 L 1129 553 L 1129 562 L 1130 563 L 1130 575 L 1131 576 L 1131 596 L 1132 597 L 1132 626 L 1131 627 L 1131 644 L 1130 645 L 1130 658 L 1129 659 L 1129 668 L 1128 669 L 1128 676 L 1127 677 L 1127 683 L 1126 684 L 1126 690 L 1125 691 L 1125 696 L 1124 697 L 1124 702 L 1123 703 L 1123 707 L 1122 708 L 1121 717 L 1120 718 L 1120 721 L 1119 722 L 1119 726 L 1117 730 L 1117 734 L 1116 735 L 1116 738 L 1114 742 L 1114 745 L 1113 746 L 1113 749 L 1111 753 L 1111 756 L 1109 760 L 1109 763 L 1108 764 L 1108 766 L 1107 767 L 1107 769 L 1106 770 L 1106 772 L 1105 773 L 1105 775 L 1104 776 L 1104 778 L 1103 779 L 1103 781 L 1102 782 L 1101 787 L 1099 790 L 1098 795 L 1096 798 L 1096 800 L 1094 803 L 1094 805 L 1092 808 L 1092 810 L 1090 813 L 1090 815 L 1077 841 L 1077 843 L 1074 849 L 1072 851 L 1068 860 L 1066 862 L 1064 867 L 1062 869 L 1059 876 L 1057 878 L 1056 881 L 1052 886 L 1051 889 L 1049 891 L 1049 892 L 1047 894 L 1047 895 L 1045 897 L 1045 898 L 1043 900 L 1043 901 L 1041 903 L 1041 904 L 1039 906 L 1039 907 L 1037 909 L 1035 913 L 1031 917 L 1031 918 L 1029 920 L 1027 924 L 1023 928 L 1023 929 L 1019 933 L 1019 934 L 1011 943 L 1011 944 L 1005 950 L 1005 951 L 976 982 L 975 982 L 960 997 L 959 997 L 943 1012 L 942 1012 L 933 1020 L 932 1020 L 929 1023 L 928 1023 L 925 1026 L 924 1026 L 913 1035 L 912 1035 L 910 1037 L 909 1037 L 907 1039 L 903 1041 L 900 1044 L 894 1047 L 892 1049 L 891 1049 L 886 1053 L 883 1054 L 881 1056 L 876 1058 L 874 1060 L 862 1066 L 860 1068 L 832 1082 L 830 1082 L 825 1085 L 823 1085 L 816 1089 L 814 1089 L 806 1093 L 801 1094 L 793 1098 L 791 1098 L 790 1099 L 788 1099 L 787 1100 L 785 1100 L 784 1101 L 782 1101 L 781 1102 L 779 1102 L 778 1103 L 776 1103 L 775 1104 L 773 1104 L 772 1105 L 770 1105 L 766 1107 L 763 1107 L 759 1109 L 756 1109 L 755 1110 L 748 1111 L 747 1112 L 745 1112 L 744 1113 L 741 1113 L 740 1114 L 737 1114 L 736 1115 L 732 1115 L 731 1116 L 727 1116 L 726 1117 L 722 1117 L 721 1118 L 717 1118 L 716 1119 L 712 1119 L 711 1120 L 707 1120 L 706 1121 L 701 1121 L 700 1122 L 694 1122 L 693 1123 L 686 1123 L 685 1124 L 678 1124 L 677 1125 L 668 1125 L 667 1126 L 654 1126 L 653 1127 L 597 1127 L 596 1126 L 583 1126 L 582 1125 L 572 1125 L 571 1124 L 564 1124 L 563 1123 L 558 1123 L 557 1122 L 551 1122 L 550 1121 L 545 1121 L 544 1120 L 539 1120 L 538 1119 L 529 1118 L 528 1117 L 525 1117 L 524 1116 L 515 1115 L 514 1114 L 511 1114 L 510 1113 L 503 1112 L 499 1110 L 492 1109 L 488 1107 L 485 1107 L 484 1106 L 482 1106 L 478 1104 L 475 1104 L 472 1102 L 469 1102 L 466 1100 L 463 1100 L 460 1098 L 455 1097 L 447 1093 L 442 1092 L 437 1089 L 435 1089 L 423 1083 L 421 1083 L 389 1067 L 387 1065 L 380 1062 L 378 1060 L 375 1059 L 373 1057 L 365 1053 L 360 1049 L 357 1048 L 355 1046 L 354 1046 L 352 1044 L 351 1044 L 349 1042 L 348 1042 L 346 1040 L 345 1040 L 343 1038 L 339 1036 L 336 1033 L 335 1033 L 332 1030 L 331 1030 L 328 1027 L 327 1027 L 324 1024 L 323 1024 L 320 1021 L 319 1021 L 316 1018 L 315 1018 L 310 1013 L 309 1013 L 304 1008 L 303 1008 L 296 1001 L 295 1001 L 288 994 L 287 994 L 256 963 L 256 962 L 247 953 L 247 952 L 236 940 L 236 939 L 232 935 L 232 934 L 228 930 L 228 929 L 225 926 L 225 925 L 216 914 L 214 910 L 211 907 L 211 906 L 209 904 L 209 903 L 207 901 L 207 900 L 199 889 L 198 886 L 196 884 L 193 878 L 191 876 L 190 873 L 188 871 L 186 866 L 184 864 L 182 859 L 180 857 L 164 825 L 164 823 L 158 811 L 158 809 L 156 806 L 156 804 L 152 796 L 151 791 L 149 788 L 148 783 L 146 780 L 146 778 L 145 777 L 145 774 L 144 773 L 144 771 L 143 770 L 143 768 L 142 767 L 142 765 L 141 764 L 141 762 L 139 758 L 139 755 L 137 751 L 137 748 L 135 744 L 135 741 L 134 740 L 134 737 L 133 736 L 133 733 L 132 732 L 132 729 L 131 728 L 131 724 L 130 723 L 130 720 L 129 719 L 129 715 L 128 714 L 128 710 L 127 709 L 127 705 L 126 704 L 126 700 L 125 699 L 125 694 L 124 693 L 124 688 L 123 687 L 123 681 L 122 680 L 122 673 L 121 672 L 121 666 L 120 665 L 120 655 L 119 654 L 119 641 L 118 640 L 118 582 L 119 581 L 119 568 L 120 567 L 120 557 L 121 556 L 121 548 L 122 547 L 122 540 L 123 539 L 123 533 L 124 532 L 124 526 L 125 525 L 125 521 L 126 520 L 126 515 L 127 514 L 127 510 L 128 509 L 129 500 L 130 499 L 130 496 L 131 495 L 131 491 L 133 487 L 133 484 L 134 483 L 134 480 L 135 479 L 135 476 L 136 475 L 137 468 L 138 467 L 138 465 L 139 464 L 139 461 L 140 460 L 140 458 L 141 457 L 141 455 L 142 454 L 142 452 L 143 451 L 143 449 L 145 445 L 145 442 L 147 439 L 147 437 L 148 436 L 149 431 L 151 428 L 151 426 L 152 425 L 153 420 L 158 410 L 158 408 L 163 398 L 163 396 L 181 360 L 183 358 L 186 351 L 188 349 L 190 344 L 192 342 L 196 334 L 202 326 L 203 323 L 205 321 L 205 320 L 207 318 L 209 314 L 212 311 L 212 310 L 217 304 L 219 300 L 223 296 L 225 292 L 229 288 L 229 287 L 233 283 L 233 282 L 238 277 L 238 276 L 243 271 L 243 270 L 251 262 L 251 261 L 266 246 L 266 245 L 269 242 L 270 242 L 288 224 L 289 224 L 297 216 L 298 216 L 303 211 L 304 211 L 308 207 L 309 207 L 314 202 L 315 202 L 318 199 L 319 199 L 323 195 L 327 193 L 330 190 L 334 188 L 337 185 L 338 185 L 340 183 L 341 183 L 343 181 L 344 181 L 355 173 L 358 172 L 363 168 L 368 166 L 370 164 L 373 163 L 375 161 L 384 157 L 386 155 L 408 144 L 410 144 L 421 138 L 423 138 L 426 136 L 428 136 L 433 133 L 435 133 L 443 129 L 445 129 L 446 128 L 448 128 L 449 127 L 454 126 L 457 124 L 459 124 L 460 123 L 462 123 L 463 122 L 465 122 L 469 120 L 472 120 L 475 118 L 478 118 L 482 116 L 485 116 L 489 114 L 492 114 L 493 113 L 496 113 L 497 112 L 500 112 L 501 111 L 504 111 L 505 110 L 508 110 L 509 109 L 512 109 L 513 108 L 517 108 L 518 107 L 522 107 L 523 106 L 527 106 L 528 105 L 532 105 L 533 104 L 538 104 L 539 103 L 543 103 L 544 102 L 550 102 L 551 101 L 557 101 L 558 100 L 564 100 L 565 99 L 573 99 L 574 98 L 583 98 L 584 97 L 598 97 Z
M 603 129 L 602 130 L 588 130 L 587 131 L 577 131 L 576 132 L 569 132 L 568 133 L 561 133 L 560 134 L 554 134 L 553 135 L 548 135 L 547 136 L 542 136 L 541 137 L 536 137 L 535 138 L 526 139 L 525 140 L 522 140 L 521 141 L 517 141 L 516 142 L 513 142 L 512 143 L 509 143 L 508 144 L 505 144 L 504 145 L 501 145 L 500 146 L 493 147 L 492 148 L 490 148 L 486 150 L 483 150 L 482 151 L 480 151 L 479 152 L 477 152 L 476 153 L 474 153 L 473 154 L 471 154 L 470 155 L 468 155 L 467 156 L 462 157 L 459 159 L 454 160 L 451 162 L 446 163 L 439 167 L 437 167 L 434 169 L 432 169 L 419 176 L 417 176 L 405 182 L 403 184 L 387 192 L 385 194 L 382 195 L 380 197 L 372 201 L 370 203 L 369 203 L 367 205 L 366 205 L 364 207 L 363 207 L 361 209 L 357 211 L 354 214 L 353 214 L 351 216 L 347 218 L 343 222 L 342 222 L 339 225 L 338 225 L 335 228 L 334 228 L 324 237 L 323 237 L 318 242 L 317 242 L 309 250 L 308 250 L 277 281 L 277 282 L 270 289 L 270 290 L 259 302 L 259 303 L 256 306 L 256 307 L 253 310 L 253 311 L 249 315 L 249 316 L 243 323 L 243 324 L 241 326 L 241 327 L 239 329 L 237 333 L 232 339 L 231 342 L 225 350 L 224 353 L 222 355 L 221 358 L 219 360 L 218 363 L 216 365 L 214 370 L 212 372 L 205 387 L 203 389 L 197 401 L 197 403 L 193 410 L 193 412 L 187 424 L 187 426 L 185 429 L 185 431 L 184 432 L 183 437 L 181 440 L 180 445 L 178 448 L 178 450 L 177 451 L 177 453 L 175 457 L 175 460 L 174 461 L 174 463 L 173 464 L 173 466 L 172 467 L 172 469 L 170 473 L 169 480 L 167 484 L 167 487 L 166 488 L 166 491 L 165 492 L 165 495 L 164 496 L 164 499 L 163 500 L 163 504 L 162 505 L 162 509 L 161 510 L 161 514 L 160 515 L 160 519 L 159 520 L 159 525 L 158 526 L 158 531 L 157 532 L 157 537 L 156 538 L 156 544 L 155 545 L 155 552 L 154 553 L 154 561 L 153 562 L 153 573 L 152 574 L 152 590 L 151 591 L 151 632 L 152 633 L 152 648 L 153 649 L 153 659 L 154 660 L 154 668 L 155 669 L 155 675 L 156 676 L 156 682 L 157 683 L 157 688 L 158 689 L 158 694 L 159 695 L 159 700 L 160 701 L 161 710 L 162 711 L 162 714 L 163 715 L 163 719 L 164 720 L 164 723 L 165 724 L 165 727 L 166 728 L 167 735 L 169 739 L 169 742 L 170 743 L 170 745 L 172 749 L 172 752 L 173 753 L 173 755 L 174 756 L 174 758 L 175 759 L 175 761 L 176 762 L 176 764 L 177 765 L 177 767 L 178 768 L 178 770 L 179 771 L 180 776 L 182 779 L 183 784 L 185 787 L 185 789 L 187 792 L 187 794 L 190 799 L 190 801 L 192 804 L 192 806 L 199 819 L 199 821 L 202 827 L 204 829 L 216 853 L 218 855 L 222 863 L 226 868 L 227 871 L 229 873 L 229 874 L 231 876 L 231 877 L 233 879 L 233 880 L 235 882 L 235 883 L 237 885 L 239 889 L 242 892 L 244 896 L 247 899 L 247 900 L 250 903 L 250 904 L 253 907 L 253 908 L 257 912 L 257 913 L 260 916 L 260 917 L 265 922 L 265 923 L 270 928 L 270 929 L 278 937 L 278 938 L 311 971 L 312 971 L 321 980 L 322 980 L 328 986 L 329 986 L 338 994 L 339 994 L 342 997 L 343 997 L 354 1006 L 358 1008 L 361 1011 L 367 1014 L 369 1016 L 370 1016 L 381 1024 L 384 1025 L 386 1027 L 389 1028 L 391 1030 L 396 1032 L 398 1034 L 405 1037 L 407 1039 L 425 1048 L 427 1048 L 447 1058 L 449 1058 L 457 1062 L 462 1063 L 470 1067 L 472 1067 L 473 1068 L 475 1068 L 476 1069 L 478 1069 L 479 1070 L 481 1070 L 482 1071 L 484 1071 L 485 1072 L 487 1072 L 488 1073 L 490 1073 L 491 1074 L 493 1074 L 497 1076 L 500 1076 L 501 1077 L 508 1078 L 512 1080 L 515 1080 L 516 1081 L 519 1081 L 520 1082 L 524 1082 L 525 1083 L 528 1083 L 529 1084 L 533 1084 L 534 1085 L 538 1085 L 539 1086 L 543 1086 L 544 1087 L 549 1087 L 550 1088 L 555 1088 L 556 1089 L 561 1089 L 562 1090 L 569 1090 L 570 1091 L 578 1091 L 579 1092 L 588 1092 L 589 1093 L 606 1093 L 607 1094 L 642 1094 L 643 1093 L 661 1093 L 662 1092 L 672 1092 L 673 1091 L 681 1091 L 682 1090 L 689 1090 L 690 1089 L 695 1089 L 696 1088 L 701 1088 L 702 1087 L 706 1087 L 707 1086 L 711 1086 L 712 1085 L 716 1085 L 717 1084 L 726 1083 L 727 1082 L 730 1082 L 731 1081 L 734 1081 L 735 1080 L 738 1080 L 739 1079 L 742 1079 L 743 1078 L 750 1077 L 754 1075 L 757 1075 L 758 1074 L 760 1074 L 761 1073 L 763 1073 L 764 1072 L 766 1072 L 767 1071 L 769 1071 L 770 1070 L 772 1070 L 773 1069 L 775 1069 L 776 1068 L 781 1067 L 784 1065 L 789 1064 L 797 1060 L 802 1059 L 816 1052 L 818 1052 L 844 1039 L 846 1037 L 860 1030 L 862 1028 L 870 1024 L 872 1022 L 873 1022 L 875 1020 L 876 1020 L 878 1018 L 879 1018 L 881 1016 L 882 1016 L 884 1014 L 885 1014 L 887 1012 L 888 1012 L 890 1010 L 894 1008 L 897 1005 L 901 1003 L 904 1000 L 905 1000 L 908 997 L 909 997 L 912 994 L 913 994 L 923 985 L 924 985 L 940 970 L 941 970 L 967 944 L 967 943 L 976 934 L 976 933 L 987 921 L 987 920 L 991 916 L 991 915 L 995 911 L 995 910 L 998 907 L 998 906 L 1007 895 L 1009 891 L 1012 888 L 1012 887 L 1020 876 L 1021 873 L 1025 868 L 1026 865 L 1028 863 L 1029 860 L 1031 858 L 1032 855 L 1034 853 L 1037 846 L 1039 844 L 1055 812 L 1055 810 L 1059 803 L 1059 801 L 1061 798 L 1061 796 L 1063 793 L 1063 791 L 1067 783 L 1067 781 L 1068 780 L 1069 775 L 1071 772 L 1071 770 L 1072 769 L 1072 767 L 1073 766 L 1073 764 L 1074 763 L 1074 761 L 1075 760 L 1075 758 L 1077 754 L 1077 751 L 1078 750 L 1078 748 L 1080 744 L 1081 737 L 1083 733 L 1083 730 L 1084 729 L 1084 726 L 1085 725 L 1085 722 L 1086 721 L 1086 717 L 1087 716 L 1087 713 L 1088 712 L 1088 708 L 1089 707 L 1089 703 L 1090 702 L 1090 698 L 1091 697 L 1091 692 L 1092 691 L 1092 686 L 1093 685 L 1093 679 L 1094 678 L 1094 672 L 1095 671 L 1095 664 L 1096 663 L 1096 654 L 1097 653 L 1097 641 L 1098 640 L 1098 582 L 1097 581 L 1097 569 L 1096 568 L 1096 558 L 1095 557 L 1095 549 L 1094 548 L 1094 542 L 1093 541 L 1093 535 L 1092 534 L 1092 529 L 1091 528 L 1091 523 L 1090 522 L 1090 517 L 1089 516 L 1089 513 L 1088 512 L 1087 503 L 1086 502 L 1086 499 L 1085 498 L 1085 495 L 1084 494 L 1084 491 L 1083 490 L 1083 486 L 1081 482 L 1081 479 L 1079 475 L 1079 472 L 1077 468 L 1077 465 L 1075 461 L 1075 458 L 1074 457 L 1073 452 L 1071 449 L 1071 447 L 1070 446 L 1070 444 L 1069 443 L 1068 438 L 1066 435 L 1066 433 L 1064 430 L 1064 428 L 1062 425 L 1062 423 L 1058 415 L 1058 413 L 1053 404 L 1053 402 L 1041 378 L 1039 376 L 1036 369 L 1034 367 L 1032 362 L 1030 360 L 1026 352 L 1024 350 L 1024 349 L 1020 344 L 1019 341 L 1017 339 L 1017 338 L 1015 336 L 1013 332 L 1010 329 L 1010 328 L 1008 326 L 1006 322 L 1003 319 L 1003 318 L 1000 315 L 1000 314 L 997 311 L 997 310 L 994 307 L 994 306 L 989 301 L 989 300 L 984 295 L 984 294 L 978 288 L 978 287 L 969 278 L 969 277 L 947 255 L 946 255 L 936 245 L 935 245 L 929 239 L 928 239 L 917 229 L 916 229 L 913 226 L 912 226 L 909 223 L 908 223 L 904 219 L 900 217 L 897 214 L 893 212 L 890 209 L 887 208 L 885 206 L 884 206 L 873 198 L 870 197 L 868 195 L 865 194 L 863 192 L 858 190 L 856 188 L 845 183 L 843 181 L 825 172 L 823 172 L 816 168 L 814 168 L 809 165 L 807 165 L 802 162 L 797 161 L 794 159 L 789 158 L 786 156 L 784 156 L 783 155 L 781 155 L 780 154 L 778 154 L 777 153 L 775 153 L 774 152 L 772 152 L 768 150 L 765 150 L 764 149 L 762 149 L 758 147 L 755 147 L 751 145 L 748 145 L 747 144 L 743 144 L 742 143 L 739 143 L 735 141 L 731 141 L 730 140 L 727 140 L 726 139 L 722 139 L 721 138 L 717 138 L 716 137 L 712 137 L 711 136 L 706 136 L 705 135 L 700 135 L 699 134 L 693 134 L 692 133 L 686 133 L 685 132 L 677 132 L 676 131 L 667 131 L 666 130 L 653 130 L 652 129 Z
M 619 135 L 635 135 L 636 136 L 657 136 L 658 137 L 671 137 L 672 138 L 680 138 L 681 139 L 688 139 L 689 140 L 695 140 L 696 141 L 701 141 L 702 142 L 707 142 L 708 143 L 713 143 L 714 144 L 718 144 L 719 145 L 728 146 L 729 147 L 732 147 L 733 148 L 736 148 L 737 149 L 740 149 L 741 150 L 748 151 L 752 153 L 759 154 L 760 155 L 762 155 L 763 156 L 765 156 L 766 157 L 768 157 L 772 159 L 775 159 L 778 161 L 781 161 L 784 163 L 789 164 L 792 166 L 797 167 L 807 172 L 809 172 L 816 176 L 818 176 L 850 192 L 852 194 L 857 196 L 859 198 L 862 199 L 864 201 L 872 205 L 877 209 L 880 210 L 883 213 L 884 213 L 886 215 L 887 215 L 889 217 L 893 219 L 896 222 L 897 222 L 900 225 L 904 227 L 908 231 L 909 231 L 912 234 L 913 234 L 918 239 L 919 239 L 924 244 L 925 244 L 933 252 L 934 252 L 944 262 L 945 262 L 961 278 L 961 279 L 979 298 L 979 299 L 983 303 L 983 304 L 987 308 L 987 309 L 991 313 L 991 314 L 995 318 L 997 322 L 1003 329 L 1003 330 L 1005 332 L 1007 336 L 1010 339 L 1013 345 L 1019 353 L 1020 356 L 1024 361 L 1025 364 L 1027 366 L 1037 386 L 1039 388 L 1045 400 L 1045 402 L 1051 413 L 1051 415 L 1053 418 L 1053 420 L 1056 425 L 1056 427 L 1060 435 L 1061 440 L 1063 443 L 1063 445 L 1064 446 L 1064 448 L 1065 449 L 1065 451 L 1066 452 L 1066 454 L 1067 455 L 1067 457 L 1068 458 L 1068 460 L 1069 461 L 1069 463 L 1071 467 L 1071 470 L 1072 471 L 1072 473 L 1074 477 L 1074 480 L 1075 481 L 1075 484 L 1076 485 L 1076 488 L 1077 489 L 1077 492 L 1078 493 L 1078 496 L 1079 497 L 1079 500 L 1080 501 L 1080 505 L 1081 506 L 1081 510 L 1082 511 L 1082 515 L 1083 516 L 1083 520 L 1084 521 L 1084 526 L 1085 527 L 1085 531 L 1086 532 L 1086 538 L 1087 539 L 1087 545 L 1088 546 L 1088 553 L 1089 554 L 1089 562 L 1090 563 L 1090 574 L 1091 575 L 1091 592 L 1092 593 L 1092 628 L 1091 629 L 1091 645 L 1090 646 L 1090 657 L 1089 658 L 1089 666 L 1088 667 L 1088 674 L 1087 675 L 1087 681 L 1086 682 L 1086 687 L 1085 688 L 1085 693 L 1084 694 L 1084 698 L 1083 699 L 1083 704 L 1082 705 L 1082 708 L 1081 709 L 1081 713 L 1080 714 L 1080 718 L 1079 719 L 1079 722 L 1078 723 L 1078 726 L 1077 727 L 1076 734 L 1074 738 L 1074 741 L 1072 745 L 1072 748 L 1071 749 L 1071 751 L 1070 752 L 1070 754 L 1069 755 L 1069 757 L 1068 758 L 1068 760 L 1067 761 L 1067 763 L 1066 764 L 1066 766 L 1065 767 L 1065 769 L 1064 770 L 1063 775 L 1061 778 L 1061 780 L 1060 781 L 1059 786 L 1054 796 L 1054 798 L 1051 803 L 1051 805 L 1045 816 L 1045 818 L 1037 834 L 1035 836 L 1032 843 L 1030 845 L 1027 852 L 1025 854 L 1021 862 L 1015 870 L 1014 873 L 1012 875 L 1012 876 L 1010 878 L 1008 882 L 1005 885 L 1004 888 L 998 895 L 998 896 L 993 902 L 993 903 L 989 907 L 989 908 L 985 912 L 985 913 L 981 917 L 981 918 L 969 931 L 969 932 L 956 945 L 956 946 L 953 949 L 952 949 L 949 952 L 949 953 L 944 958 L 943 958 L 930 971 L 929 971 L 922 978 L 921 978 L 911 987 L 910 987 L 907 990 L 906 990 L 898 997 L 894 999 L 891 1002 L 890 1002 L 888 1004 L 884 1006 L 881 1009 L 880 1009 L 872 1015 L 869 1016 L 867 1018 L 861 1021 L 859 1023 L 856 1024 L 854 1026 L 845 1030 L 843 1032 L 813 1047 L 811 1047 L 804 1051 L 802 1051 L 797 1054 L 795 1054 L 792 1056 L 787 1057 L 784 1059 L 779 1060 L 776 1062 L 774 1062 L 773 1063 L 770 1063 L 767 1065 L 765 1065 L 761 1067 L 758 1067 L 754 1069 L 751 1069 L 747 1071 L 740 1072 L 739 1073 L 737 1073 L 736 1074 L 733 1074 L 732 1075 L 729 1075 L 728 1076 L 719 1077 L 718 1078 L 715 1078 L 714 1079 L 710 1079 L 709 1080 L 704 1080 L 703 1081 L 698 1081 L 697 1082 L 692 1082 L 691 1083 L 685 1083 L 684 1084 L 677 1084 L 676 1085 L 666 1085 L 665 1086 L 651 1086 L 650 1087 L 600 1087 L 599 1086 L 585 1086 L 584 1085 L 575 1085 L 574 1084 L 567 1084 L 566 1083 L 560 1083 L 559 1082 L 553 1082 L 552 1081 L 547 1081 L 546 1080 L 542 1080 L 541 1079 L 537 1079 L 536 1078 L 527 1077 L 526 1076 L 523 1076 L 522 1075 L 519 1075 L 518 1074 L 515 1074 L 514 1073 L 507 1072 L 503 1070 L 500 1070 L 496 1068 L 493 1068 L 492 1067 L 490 1067 L 489 1066 L 487 1066 L 486 1065 L 481 1064 L 478 1062 L 475 1062 L 472 1060 L 470 1060 L 469 1059 L 464 1058 L 461 1056 L 459 1056 L 456 1054 L 454 1054 L 451 1052 L 449 1052 L 440 1047 L 438 1047 L 406 1031 L 404 1029 L 397 1026 L 395 1024 L 387 1020 L 382 1016 L 379 1015 L 377 1013 L 376 1013 L 374 1011 L 373 1011 L 371 1009 L 370 1009 L 368 1007 L 364 1005 L 361 1002 L 357 1000 L 346 991 L 345 991 L 341 987 L 340 987 L 336 983 L 335 983 L 330 978 L 329 978 L 323 972 L 322 972 L 312 962 L 311 962 L 287 938 L 287 937 L 278 928 L 278 927 L 267 915 L 267 914 L 263 910 L 263 909 L 259 905 L 259 904 L 256 901 L 256 900 L 247 889 L 247 888 L 242 882 L 242 881 L 236 873 L 235 870 L 229 862 L 225 854 L 223 852 L 221 847 L 219 845 L 216 838 L 214 836 L 201 810 L 201 808 L 194 794 L 194 792 L 190 784 L 189 779 L 187 776 L 187 774 L 186 773 L 185 768 L 183 765 L 183 763 L 182 762 L 182 760 L 180 756 L 180 753 L 179 752 L 179 750 L 177 746 L 177 743 L 175 739 L 175 736 L 173 732 L 173 729 L 172 728 L 172 725 L 171 724 L 170 717 L 169 716 L 169 712 L 168 711 L 168 708 L 167 707 L 167 703 L 166 702 L 166 698 L 165 697 L 165 692 L 164 691 L 164 687 L 163 686 L 163 680 L 162 679 L 162 672 L 161 671 L 161 663 L 160 662 L 160 653 L 159 652 L 159 637 L 158 636 L 158 584 L 159 583 L 159 569 L 160 568 L 160 558 L 161 557 L 161 549 L 162 548 L 162 541 L 163 540 L 163 535 L 164 534 L 164 529 L 165 528 L 165 523 L 166 522 L 166 518 L 167 517 L 167 513 L 168 512 L 169 503 L 170 502 L 170 499 L 171 498 L 171 495 L 172 494 L 172 491 L 173 490 L 173 487 L 174 486 L 175 479 L 177 475 L 177 472 L 178 471 L 178 469 L 179 468 L 179 466 L 180 465 L 180 463 L 181 462 L 181 460 L 182 459 L 182 457 L 183 456 L 183 454 L 184 453 L 184 451 L 185 450 L 185 448 L 186 447 L 187 442 L 189 439 L 189 437 L 191 434 L 192 429 L 197 419 L 197 417 L 200 412 L 200 410 L 216 378 L 218 376 L 220 371 L 222 369 L 227 359 L 231 354 L 232 351 L 234 349 L 234 348 L 236 346 L 236 345 L 238 343 L 238 342 L 240 340 L 240 339 L 242 337 L 242 336 L 244 334 L 246 330 L 255 319 L 257 315 L 262 310 L 262 309 L 271 299 L 271 298 L 276 293 L 276 292 L 287 281 L 287 280 L 308 259 L 309 259 L 327 242 L 328 242 L 342 230 L 343 230 L 350 224 L 354 222 L 357 219 L 361 217 L 364 214 L 365 214 L 370 210 L 373 209 L 375 207 L 376 207 L 381 203 L 384 202 L 386 200 L 400 193 L 402 191 L 430 177 L 432 177 L 441 172 L 443 172 L 446 170 L 448 170 L 451 168 L 453 168 L 461 164 L 463 164 L 464 163 L 466 163 L 467 162 L 469 162 L 470 161 L 472 161 L 473 160 L 475 160 L 479 158 L 482 158 L 483 157 L 485 157 L 486 156 L 488 156 L 492 154 L 495 154 L 499 152 L 502 152 L 503 151 L 506 151 L 507 150 L 510 150 L 511 149 L 514 149 L 515 148 L 524 147 L 525 146 L 528 146 L 529 145 L 533 145 L 534 144 L 539 144 L 540 143 L 545 143 L 546 142 L 550 142 L 551 141 L 557 141 L 558 140 L 564 140 L 565 139 L 572 139 L 573 138 L 582 138 L 583 137 L 596 137 L 597 136 L 618 136 Z
M 514 889 L 514 941 L 516 945 L 523 951 L 525 952 L 527 952 L 528 953 L 530 953 L 531 954 L 534 954 L 535 955 L 539 955 L 540 956 L 557 956 L 558 955 L 563 955 L 564 954 L 566 954 L 567 953 L 569 953 L 570 952 L 572 952 L 576 950 L 582 944 L 582 920 L 582 922 L 580 923 L 573 917 L 571 916 L 569 916 L 570 916 L 577 923 L 577 924 L 579 926 L 581 930 L 581 934 L 577 938 L 569 942 L 567 942 L 563 944 L 559 944 L 558 945 L 550 945 L 549 944 L 549 918 L 550 917 L 557 917 L 557 916 L 552 916 L 551 915 L 539 915 L 537 916 L 540 916 L 541 917 L 546 917 L 547 918 L 547 944 L 546 945 L 539 945 L 538 944 L 535 944 L 534 943 L 531 943 L 530 942 L 528 942 L 520 938 L 515 933 L 515 931 L 516 930 L 516 926 L 518 924 L 518 923 L 524 917 L 525 917 L 524 914 L 527 910 L 528 911 L 528 915 L 533 915 L 537 913 L 541 913 L 542 912 L 549 912 L 550 911 L 580 911 L 581 912 L 588 912 L 589 913 L 595 913 L 596 914 L 601 914 L 602 915 L 607 915 L 608 916 L 612 916 L 613 917 L 622 918 L 623 919 L 626 919 L 627 920 L 636 921 L 637 922 L 640 922 L 641 923 L 644 923 L 645 924 L 648 924 L 649 925 L 652 925 L 653 926 L 657 926 L 661 928 L 664 928 L 665 929 L 668 929 L 669 930 L 672 930 L 673 931 L 677 931 L 678 932 L 681 932 L 682 933 L 685 933 L 686 934 L 690 934 L 691 935 L 694 935 L 695 936 L 700 936 L 701 937 L 706 937 L 707 938 L 714 938 L 715 939 L 737 939 L 738 938 L 742 938 L 743 937 L 746 937 L 747 936 L 749 936 L 750 935 L 752 935 L 756 933 L 758 931 L 762 929 L 765 926 L 761 918 L 760 918 L 758 920 L 757 920 L 755 922 L 751 924 L 749 924 L 748 923 L 748 897 L 749 896 L 751 896 L 757 893 L 762 888 L 763 886 L 763 884 L 764 883 L 764 881 L 765 880 L 765 877 L 760 881 L 754 884 L 749 885 L 748 886 L 745 886 L 744 887 L 741 887 L 740 888 L 732 888 L 731 889 L 719 889 L 718 888 L 707 888 L 706 887 L 698 887 L 697 886 L 691 886 L 690 885 L 685 885 L 684 884 L 679 884 L 678 883 L 674 883 L 673 882 L 669 882 L 668 881 L 664 881 L 663 880 L 659 880 L 658 879 L 649 878 L 648 877 L 645 877 L 644 876 L 640 876 L 639 875 L 634 875 L 633 874 L 629 874 L 628 873 L 623 873 L 622 872 L 617 872 L 616 871 L 610 871 L 609 870 L 602 870 L 601 869 L 591 869 L 590 868 L 566 868 L 565 869 L 556 869 L 555 870 L 550 870 L 549 871 L 545 871 L 544 872 L 537 873 L 531 876 L 529 876 L 523 879 L 521 881 L 520 881 L 516 885 Z
M 549 948 L 550 947 L 555 947 L 556 948 L 556 952 L 555 953 L 550 953 L 549 952 Z
M 538 948 L 539 947 L 545 947 L 546 948 L 546 951 L 547 952 L 546 953 L 540 953 L 538 951 Z
M 560 946 L 563 946 L 564 947 L 564 951 L 563 952 L 559 952 L 558 951 L 558 948 Z
M 571 943 L 572 944 L 572 948 L 570 950 L 568 950 L 567 951 L 566 950 L 566 946 L 568 944 Z
M 526 944 L 527 943 L 530 945 L 533 945 L 534 946 L 534 951 L 533 952 L 532 951 L 530 951 L 528 950 L 526 948 Z
M 579 938 L 580 939 L 580 944 L 576 947 L 575 947 L 574 946 L 574 942 L 577 939 Z
M 517 938 L 520 939 L 523 942 L 523 946 L 522 947 L 521 947 L 516 942 L 517 941 L 516 939 Z
M 729 931 L 730 930 L 735 930 L 736 931 L 736 935 L 735 936 L 730 936 L 729 935 Z
M 718 931 L 719 930 L 725 930 L 726 931 L 726 935 L 725 936 L 720 936 L 718 934 Z
M 709 930 L 710 929 L 715 929 L 716 930 L 716 935 L 715 936 L 714 935 L 710 935 L 709 934 Z
M 745 928 L 747 932 L 745 934 L 740 935 L 739 934 L 739 931 L 741 929 L 743 928 Z
M 699 928 L 700 927 L 701 928 L 704 928 L 706 930 L 706 933 L 705 934 L 701 934 L 699 932 Z
M 754 925 L 755 926 L 755 929 L 753 931 L 749 933 L 748 932 L 748 928 L 750 926 L 752 925 Z
M 690 925 L 691 926 L 694 926 L 695 927 L 695 931 L 694 932 L 691 932 L 688 930 L 688 927 Z
M 681 923 L 682 924 L 685 924 L 686 925 L 686 929 L 685 930 L 682 930 L 679 928 L 679 925 Z
M 760 921 L 761 922 L 761 926 L 759 928 L 757 928 L 756 927 L 757 926 L 757 923 L 759 921 Z
M 669 922 L 670 921 L 672 922 L 675 922 L 676 923 L 676 927 L 675 928 L 673 927 L 671 927 L 669 925 Z
M 659 920 L 660 919 L 664 919 L 666 921 L 666 925 L 665 926 L 664 925 L 661 925 L 659 923 Z
M 650 918 L 651 917 L 655 917 L 657 919 L 657 923 L 656 924 L 655 923 L 652 923 L 650 921 Z
M 642 914 L 643 915 L 645 915 L 647 917 L 647 920 L 646 921 L 644 920 L 641 920 L 640 919 L 640 916 Z
M 522 913 L 523 914 L 523 917 L 518 922 L 517 924 L 516 923 L 516 920 L 517 919 L 517 917 L 521 913 Z
M 630 913 L 631 912 L 634 912 L 637 914 L 637 918 L 636 919 L 635 918 L 632 918 L 630 916 Z
M 622 911 L 623 910 L 625 910 L 628 912 L 628 916 L 627 917 L 626 916 L 623 916 L 621 914 L 622 913 Z
M 612 909 L 613 908 L 616 908 L 618 910 L 618 913 L 617 914 L 613 914 L 612 913 Z
M 602 908 L 603 907 L 608 907 L 609 908 L 609 912 L 608 913 L 606 912 L 603 912 L 602 911 Z
M 531 908 L 532 907 L 534 907 L 535 908 L 534 909 L 532 909 Z
M 517 907 L 518 907 L 519 909 L 521 910 L 521 911 L 518 915 L 516 914 L 516 908 Z
M 593 907 L 595 905 L 597 906 L 599 906 L 600 907 L 600 910 L 599 911 L 595 911 L 593 909 Z
M 584 905 L 585 904 L 588 904 L 591 906 L 591 909 L 590 910 L 586 910 L 584 908 Z
M 547 905 L 548 904 L 551 904 L 552 905 L 552 908 L 551 909 L 548 909 L 547 908 Z
M 543 904 L 544 905 L 544 909 L 543 910 L 539 910 L 538 909 L 538 906 L 539 905 L 542 905 Z
M 520 905 L 521 904 L 523 906 L 523 907 L 521 908 L 520 907 Z
M 575 905 L 579 903 L 581 905 L 581 908 L 580 909 L 576 909 L 575 908 Z
M 566 904 L 567 903 L 571 903 L 572 904 L 572 908 L 571 909 L 569 908 L 567 908 L 566 907 Z
M 556 904 L 557 903 L 560 903 L 562 905 L 562 907 L 558 909 L 556 907 Z
M 746 897 L 747 898 L 747 924 L 744 926 L 741 926 L 740 927 L 731 927 L 730 928 L 720 928 L 718 926 L 718 901 L 719 900 L 732 900 L 733 899 L 740 899 L 741 898 L 745 898 Z
M 689 896 L 692 896 L 693 897 L 697 897 L 698 898 L 704 898 L 705 899 L 715 899 L 717 901 L 717 926 L 716 927 L 710 927 L 709 926 L 704 926 L 703 925 L 697 925 L 696 924 L 691 924 L 688 922 L 688 897 Z
M 550 896 L 551 895 L 552 896 L 551 897 Z
M 555 894 L 556 893 L 558 894 L 557 895 Z
M 552 894 L 553 893 L 555 894 L 554 895 Z
M 558 893 L 559 892 L 560 893 L 559 894 Z
M 550 893 L 551 892 L 552 893 L 551 894 Z
M 729 892 L 730 891 L 735 891 L 736 892 L 736 896 L 735 897 L 730 897 L 729 896 Z
M 719 892 L 720 891 L 724 891 L 726 893 L 726 896 L 725 897 L 720 897 L 719 896 Z
M 709 892 L 710 891 L 715 891 L 716 892 L 716 896 L 715 897 L 710 897 L 709 896 Z
M 699 891 L 700 890 L 704 890 L 706 892 L 706 895 L 705 896 L 702 896 L 699 894 Z
M 660 890 L 662 891 L 666 891 L 667 892 L 670 892 L 671 893 L 676 893 L 677 894 L 686 895 L 687 896 L 687 921 L 686 922 L 682 922 L 681 921 L 678 921 L 677 920 L 674 920 L 673 919 L 670 919 L 669 918 L 666 918 L 665 917 L 661 917 L 659 915 L 659 906 L 658 905 L 658 895 L 659 893 L 658 892 Z
M 555 891 L 556 890 L 557 891 L 556 892 Z
M 553 891 L 554 890 L 555 891 L 554 892 Z
M 745 889 L 746 890 L 746 894 L 745 895 L 740 896 L 739 895 L 739 892 L 741 890 L 743 890 Z
M 557 890 L 558 889 L 560 890 L 559 891 Z
M 690 888 L 692 888 L 695 890 L 695 894 L 694 895 L 693 894 L 690 894 L 688 892 L 689 891 L 688 890 Z
M 560 889 L 561 888 L 562 889 L 564 889 L 565 891 L 564 892 L 562 891 L 561 893 L 560 892 Z
M 550 889 L 551 888 L 552 889 L 551 890 Z
M 754 887 L 755 888 L 755 891 L 749 894 L 748 893 L 748 889 L 749 888 Z
M 680 888 L 681 887 L 685 887 L 686 888 L 686 892 L 685 893 L 680 892 L 679 891 L 680 890 Z
M 572 888 L 572 896 L 573 897 L 573 900 L 572 901 L 553 901 L 552 902 L 548 902 L 547 901 L 548 899 L 550 899 L 554 896 L 557 896 L 558 895 L 560 895 L 560 894 L 561 893 L 562 894 L 563 892 L 565 894 L 570 894 L 568 894 L 566 892 L 566 888 L 567 887 L 571 887 Z
M 562 888 L 563 887 L 565 888 L 564 889 Z
M 553 887 L 555 886 L 556 888 L 554 889 Z
M 669 886 L 670 885 L 674 885 L 676 887 L 676 890 L 675 891 L 671 891 L 669 889 Z
M 631 884 L 633 884 L 634 885 L 638 885 L 639 886 L 643 886 L 644 887 L 648 887 L 649 888 L 652 888 L 653 889 L 656 889 L 658 891 L 658 915 L 657 916 L 655 915 L 652 915 L 651 914 L 648 914 L 647 913 L 644 913 L 643 912 L 640 912 L 639 911 L 636 911 L 635 910 L 631 910 L 630 909 L 630 902 L 629 901 L 629 889 L 630 888 L 630 885 Z
M 557 887 L 557 885 L 558 884 L 560 885 L 562 885 L 563 886 L 559 888 Z
M 760 883 L 761 884 L 761 888 L 758 890 L 757 889 L 757 885 L 759 883 Z
M 659 884 L 660 883 L 664 883 L 666 885 L 666 888 L 665 889 L 660 888 L 659 887 Z
M 521 883 L 522 884 L 522 888 L 518 892 L 517 891 L 517 886 Z
M 650 882 L 651 881 L 655 881 L 657 883 L 657 886 L 656 887 L 653 887 L 650 885 Z
M 544 882 L 544 902 L 543 903 L 539 903 L 538 904 L 535 904 L 534 905 L 532 905 L 531 906 L 529 906 L 527 907 L 517 900 L 516 898 L 516 896 L 523 889 L 526 888 L 530 885 L 532 885 L 533 884 L 535 884 L 536 883 L 538 883 L 542 881 Z
M 640 882 L 642 879 L 645 879 L 647 881 L 647 884 L 646 885 L 644 885 Z
M 603 879 L 604 880 L 610 880 L 611 881 L 617 881 L 618 882 L 627 883 L 629 885 L 629 908 L 628 909 L 625 909 L 624 908 L 621 908 L 620 907 L 616 907 L 615 906 L 611 906 L 610 905 L 604 905 L 601 903 L 601 881 Z
M 574 879 L 575 878 L 595 878 L 596 879 L 599 879 L 600 880 L 600 885 L 601 886 L 601 900 L 600 901 L 600 903 L 598 904 L 597 903 L 590 903 L 589 902 L 578 902 L 577 901 L 575 901 L 574 900 Z
M 573 879 L 573 883 L 571 887 L 570 886 L 568 886 L 567 885 L 564 885 L 560 883 L 554 883 L 553 882 L 550 882 L 549 881 L 550 880 L 555 880 L 556 879 L 562 879 L 563 878 L 572 878 Z
M 630 878 L 631 877 L 636 877 L 637 878 L 637 882 L 636 883 L 631 882 L 630 881 Z
M 533 877 L 534 878 L 534 882 L 533 883 L 530 883 L 526 885 L 525 884 L 525 882 L 528 879 L 530 879 Z
M 621 877 L 623 875 L 625 876 L 627 876 L 628 877 L 628 880 L 627 881 L 624 881 L 621 879 L 622 878 Z
M 612 875 L 613 874 L 617 874 L 618 875 L 618 878 L 617 879 L 613 879 L 612 878 Z
M 543 874 L 544 875 L 544 879 L 543 880 L 541 880 L 539 881 L 538 880 L 538 876 L 539 875 L 541 875 Z
M 546 875 L 548 873 L 551 873 L 552 874 L 552 877 L 551 878 L 547 878 L 546 877 Z
M 602 873 L 603 872 L 608 873 L 609 874 L 609 877 L 608 878 L 604 878 L 602 876 Z
M 556 873 L 557 872 L 561 872 L 562 873 L 561 874 L 562 875 L 559 877 L 557 877 L 556 876 Z
M 594 872 L 595 871 L 597 872 L 599 872 L 600 873 L 600 876 L 599 877 L 595 877 L 594 876 Z
M 584 872 L 585 871 L 589 871 L 591 873 L 591 875 L 590 876 L 585 876 L 584 875 Z
M 575 872 L 576 871 L 580 871 L 581 872 L 581 875 L 580 876 L 576 876 L 575 875 Z
M 565 875 L 567 871 L 571 871 L 572 872 L 572 875 L 571 876 L 566 876 Z
M 853 750 L 853 759 L 856 761 L 858 761 L 860 763 L 860 765 L 862 769 L 863 776 L 865 780 L 866 787 L 868 791 L 868 795 L 869 796 L 869 798 L 870 799 L 870 802 L 872 806 L 872 809 L 873 810 L 873 813 L 874 814 L 874 817 L 875 818 L 875 821 L 876 822 L 876 825 L 877 827 L 896 827 L 897 826 L 897 824 L 898 823 L 898 820 L 899 819 L 899 816 L 900 815 L 900 813 L 901 812 L 901 809 L 902 808 L 902 805 L 903 804 L 903 802 L 904 801 L 904 798 L 906 794 L 906 791 L 907 790 L 907 788 L 909 786 L 910 787 L 910 790 L 912 794 L 913 801 L 915 805 L 915 808 L 916 809 L 917 816 L 919 820 L 920 827 L 940 827 L 941 825 L 941 822 L 943 818 L 943 815 L 944 814 L 945 807 L 947 803 L 947 800 L 948 799 L 948 796 L 949 795 L 950 788 L 951 787 L 951 785 L 952 784 L 952 781 L 954 777 L 955 770 L 956 769 L 957 764 L 960 761 L 965 760 L 965 750 L 934 750 L 934 759 L 935 760 L 940 761 L 942 763 L 942 767 L 941 768 L 941 771 L 940 772 L 940 776 L 939 777 L 939 780 L 937 784 L 937 787 L 936 788 L 936 791 L 935 792 L 934 799 L 932 802 L 931 801 L 931 798 L 930 797 L 930 794 L 929 793 L 928 786 L 926 782 L 926 779 L 925 778 L 925 775 L 924 774 L 924 771 L 923 770 L 923 767 L 921 763 L 921 760 L 920 759 L 920 756 L 919 755 L 919 752 L 918 750 L 905 750 L 904 751 L 904 753 L 902 757 L 902 760 L 901 761 L 901 764 L 899 768 L 899 771 L 898 772 L 897 779 L 896 780 L 896 782 L 895 783 L 895 786 L 893 790 L 893 793 L 892 794 L 891 801 L 890 802 L 888 799 L 888 796 L 887 795 L 887 791 L 886 790 L 886 787 L 885 786 L 885 783 L 884 782 L 884 779 L 883 778 L 883 774 L 882 773 L 882 770 L 881 769 L 881 766 L 880 765 L 880 763 L 882 761 L 884 760 L 887 760 L 888 759 L 888 750 L 887 749 L 886 750 L 885 749 L 880 749 L 879 750 L 874 750 L 873 749 L 854 749 Z
M 703 749 L 703 759 L 705 760 L 707 760 L 711 763 L 711 813 L 708 816 L 703 817 L 703 827 L 764 827 L 764 810 L 765 809 L 765 801 L 755 801 L 754 803 L 754 805 L 753 806 L 753 808 L 751 810 L 751 811 L 749 813 L 745 815 L 732 815 L 730 813 L 731 811 L 731 762 L 732 761 L 734 761 L 735 760 L 737 760 L 739 759 L 739 749 Z
M 628 749 L 628 759 L 630 760 L 632 760 L 636 763 L 636 813 L 634 815 L 628 817 L 628 827 L 664 827 L 664 817 L 659 816 L 655 813 L 655 794 L 656 793 L 666 793 L 668 795 L 669 797 L 669 800 L 670 801 L 677 801 L 677 775 L 670 775 L 668 781 L 665 783 L 656 783 L 655 782 L 655 763 L 657 761 L 673 761 L 674 762 L 677 762 L 682 767 L 682 769 L 683 770 L 683 773 L 684 774 L 693 774 L 693 751 L 694 750 L 693 749 Z
M 522 749 L 522 758 L 530 762 L 530 813 L 528 815 L 522 817 L 522 826 L 523 827 L 524 826 L 528 826 L 529 827 L 589 827 L 589 824 L 590 823 L 590 801 L 580 801 L 577 810 L 574 813 L 572 814 L 551 814 L 550 813 L 550 794 L 551 793 L 561 793 L 564 797 L 564 800 L 572 800 L 572 775 L 564 775 L 564 778 L 561 782 L 552 783 L 550 781 L 550 762 L 551 761 L 570 761 L 574 763 L 576 765 L 578 769 L 578 772 L 579 774 L 589 774 L 589 749 Z
M 802 748 L 801 749 L 796 750 L 790 753 L 788 755 L 787 755 L 781 761 L 781 762 L 779 764 L 775 772 L 775 774 L 774 775 L 774 779 L 773 780 L 773 797 L 774 798 L 774 801 L 775 802 L 776 807 L 779 813 L 786 821 L 787 821 L 792 825 L 794 826 L 796 826 L 797 827 L 799 827 L 800 828 L 805 828 L 806 829 L 817 829 L 818 828 L 823 828 L 824 827 L 826 827 L 834 823 L 843 814 L 847 806 L 847 804 L 849 800 L 849 794 L 850 793 L 850 783 L 849 782 L 849 777 L 848 776 L 848 773 L 847 772 L 847 770 L 845 766 L 843 764 L 841 760 L 836 755 L 835 755 L 833 753 L 827 750 L 822 749 L 821 748 Z
M 809 760 L 814 760 L 815 761 L 817 761 L 819 762 L 825 768 L 826 770 L 826 772 L 827 773 L 827 776 L 828 777 L 828 799 L 827 800 L 827 803 L 823 811 L 820 814 L 816 816 L 807 816 L 803 814 L 799 810 L 797 806 L 797 804 L 796 803 L 796 799 L 795 798 L 795 778 L 796 777 L 796 773 L 798 770 L 798 768 L 804 762 L 806 761 L 808 761 Z
M 435 748 L 434 749 L 434 758 L 435 759 L 438 759 L 440 760 L 443 763 L 443 812 L 440 815 L 438 816 L 435 816 L 434 817 L 434 826 L 465 826 L 465 817 L 464 816 L 461 816 L 460 815 L 458 815 L 456 813 L 456 780 L 457 779 L 459 781 L 461 785 L 464 788 L 464 789 L 466 791 L 466 792 L 468 794 L 468 795 L 470 797 L 470 798 L 472 800 L 472 801 L 474 803 L 474 804 L 476 806 L 476 807 L 478 809 L 478 810 L 480 812 L 480 813 L 482 815 L 482 816 L 484 818 L 484 819 L 486 821 L 488 825 L 490 827 L 497 827 L 498 826 L 502 826 L 503 827 L 504 826 L 504 762 L 509 759 L 512 759 L 513 758 L 513 749 L 482 749 L 482 759 L 485 759 L 486 760 L 488 760 L 491 764 L 491 788 L 490 789 L 491 791 L 489 792 L 488 790 L 485 787 L 485 786 L 483 784 L 483 783 L 481 781 L 481 780 L 479 778 L 479 777 L 477 775 L 477 774 L 475 772 L 475 771 L 473 769 L 471 765 L 468 762 L 468 761 L 466 759 L 466 758 L 464 756 L 464 755 L 462 753 L 460 749 L 458 748 Z
M 388 748 L 388 758 L 389 759 L 394 760 L 396 762 L 396 812 L 393 815 L 391 816 L 388 816 L 388 826 L 424 826 L 424 816 L 421 816 L 420 815 L 418 815 L 416 813 L 416 762 L 418 760 L 420 759 L 423 759 L 424 758 L 424 748 Z
M 328 749 L 326 751 L 322 753 L 316 759 L 309 773 L 309 777 L 308 778 L 308 796 L 309 797 L 309 800 L 310 801 L 310 803 L 311 804 L 311 806 L 313 810 L 315 812 L 315 813 L 322 820 L 323 820 L 325 822 L 331 825 L 333 825 L 334 826 L 337 826 L 338 827 L 350 827 L 351 826 L 353 826 L 354 825 L 356 825 L 358 824 L 364 819 L 366 820 L 368 825 L 370 824 L 372 824 L 376 822 L 377 821 L 377 818 L 376 817 L 376 810 L 375 809 L 375 799 L 374 798 L 365 798 L 365 800 L 362 804 L 362 805 L 357 810 L 353 812 L 349 812 L 348 813 L 347 812 L 342 812 L 340 811 L 334 805 L 332 801 L 332 799 L 331 798 L 331 794 L 330 793 L 330 779 L 331 778 L 331 774 L 332 773 L 332 771 L 333 770 L 333 768 L 334 766 L 339 761 L 343 759 L 351 759 L 357 762 L 362 768 L 362 770 L 364 773 L 364 776 L 365 777 L 376 777 L 376 753 L 377 752 L 377 749 L 376 748 L 369 748 L 367 747 L 364 753 L 358 748 L 356 747 L 353 747 L 352 746 L 337 746 L 336 747 L 333 747 L 332 748 L 330 748 Z
M 644 670 L 644 676 L 686 676 L 682 672 L 681 670 Z
M 582 670 L 580 670 L 579 671 L 579 673 L 577 675 L 577 677 L 579 676 L 581 677 L 582 676 Z
M 590 656 L 589 656 L 588 658 L 588 676 L 589 676 L 590 674 L 590 668 L 591 667 L 591 657 Z
M 566 650 L 563 650 L 559 658 L 557 660 L 556 663 L 554 665 L 550 674 L 548 676 L 552 676 L 555 669 L 557 667 L 558 664 L 560 662 Z
M 608 648 L 602 652 L 600 652 L 599 653 L 598 652 L 598 658 L 597 659 L 597 665 L 596 666 L 596 670 L 595 671 L 595 675 L 594 676 L 602 676 L 602 673 L 603 672 L 603 668 L 604 667 L 604 662 L 605 661 L 605 651 Z
M 520 510 L 521 511 L 521 520 L 522 521 L 522 533 L 523 534 L 523 517 L 522 516 L 522 511 Z
M 770 477 L 769 478 L 764 478 L 764 669 L 763 670 L 721 670 L 721 671 L 724 674 L 725 676 L 771 676 L 771 478 Z
M 553 464 L 550 463 L 544 466 L 543 465 L 538 465 L 534 468 L 533 470 L 533 473 L 532 474 L 532 476 L 533 477 L 533 481 L 536 485 L 542 485 L 543 486 L 546 486 L 549 484 L 550 485 L 554 485 L 556 483 L 557 481 L 557 477 L 558 476 L 557 475 L 557 471 L 556 470 L 556 468 Z
M 549 481 L 550 480 L 551 482 L 550 483 Z
M 538 466 L 540 466 L 542 468 L 543 470 L 543 472 L 544 473 L 544 479 L 543 480 L 543 482 L 541 484 L 537 484 L 534 480 L 535 479 L 535 474 L 534 472 L 535 471 L 535 469 Z
M 549 464 L 551 464 L 554 468 L 554 471 L 552 472 L 553 474 L 552 475 L 552 479 L 551 480 L 550 479 L 550 471 L 548 469 L 544 467 Z
M 452 464 L 451 466 L 451 676 L 543 676 L 546 670 L 459 670 L 458 669 L 458 462 L 455 464 Z
M 448 430 L 442 433 L 438 438 L 438 441 L 437 442 L 437 447 L 440 453 L 443 456 L 447 458 L 454 458 L 456 457 L 451 457 L 449 455 L 448 455 L 445 452 L 443 448 L 443 443 L 442 442 L 442 437 L 443 435 L 446 432 L 450 430 Z
M 547 425 L 539 425 L 535 427 L 531 431 L 531 433 L 529 437 L 529 446 L 530 447 L 530 462 L 531 464 L 531 447 L 530 446 L 530 440 L 531 439 L 531 436 L 533 432 L 538 427 L 540 426 L 547 426 L 549 427 L 552 430 L 554 434 L 554 437 L 555 438 L 555 447 L 554 448 L 554 450 L 552 454 L 548 458 L 551 457 L 555 452 L 555 450 L 556 449 L 556 445 L 557 444 L 556 435 L 554 431 L 552 429 L 552 428 L 551 428 Z
M 570 409 L 569 410 L 571 413 L 571 420 L 570 421 L 568 421 L 567 420 L 565 421 L 564 420 L 564 418 L 563 418 L 563 421 L 564 422 L 565 421 L 566 422 L 569 422 L 570 421 L 571 422 L 571 426 L 572 427 L 572 432 L 573 433 L 573 441 L 574 442 L 574 457 L 575 458 L 575 469 L 576 470 L 576 477 L 577 478 L 577 456 L 576 455 L 576 445 L 575 444 L 575 426 L 574 425 L 574 422 L 573 421 L 573 416 L 572 415 L 572 411 Z
M 582 405 L 581 406 L 581 415 L 582 416 L 582 422 L 583 423 L 583 430 L 585 432 L 585 433 L 584 434 L 581 432 L 578 434 L 578 436 L 580 434 L 581 435 L 581 439 L 580 440 L 578 438 L 579 439 L 579 441 L 581 442 L 580 443 L 580 445 L 582 445 L 584 443 L 585 444 L 585 458 L 586 459 L 586 470 L 587 471 L 587 475 L 587 463 L 588 462 L 588 456 L 587 455 L 587 449 L 588 448 L 588 439 L 587 438 L 587 432 L 586 431 L 586 424 L 585 423 L 585 416 L 584 415 L 584 411 L 583 410 Z
M 580 440 L 581 439 L 582 441 L 581 442 Z
M 590 397 L 587 397 L 586 398 L 583 398 L 582 399 L 579 399 L 578 400 L 575 400 L 574 401 L 571 401 L 570 402 L 567 402 L 566 401 L 564 401 L 563 402 L 561 402 L 560 403 L 558 403 L 554 405 L 551 405 L 547 407 L 544 407 L 543 408 L 541 408 L 540 409 L 538 409 L 534 411 L 531 411 L 527 413 L 529 413 L 530 412 L 533 412 L 534 411 L 537 411 L 538 410 L 541 410 L 542 409 L 551 408 L 552 407 L 555 407 L 556 406 L 559 406 L 560 405 L 563 405 L 564 404 L 568 404 L 569 403 L 572 403 L 573 402 L 576 402 L 577 401 L 581 401 L 582 400 L 585 400 L 586 399 L 587 399 L 589 401 L 589 412 L 590 413 L 590 426 L 591 427 L 591 439 L 592 440 L 592 447 L 593 448 L 593 458 L 594 459 L 594 471 L 595 472 L 595 482 L 594 483 L 591 483 L 590 484 L 586 484 L 585 485 L 578 486 L 574 488 L 571 488 L 570 489 L 567 489 L 566 490 L 559 491 L 558 492 L 556 492 L 555 493 L 552 493 L 551 494 L 548 494 L 547 495 L 543 495 L 542 496 L 539 496 L 538 497 L 535 497 L 534 498 L 530 498 L 529 499 L 527 499 L 523 501 L 520 501 L 519 502 L 516 502 L 515 503 L 524 502 L 525 501 L 528 501 L 532 499 L 539 498 L 543 496 L 547 496 L 551 494 L 554 494 L 555 493 L 558 493 L 559 492 L 562 492 L 563 491 L 566 491 L 567 490 L 570 490 L 571 489 L 575 489 L 576 488 L 579 488 L 580 487 L 583 487 L 584 486 L 587 486 L 588 485 L 592 485 L 596 483 L 596 467 L 595 466 L 595 451 L 594 450 L 594 435 L 593 434 L 593 423 L 592 422 L 592 414 L 591 413 L 591 402 L 590 401 Z
M 563 402 L 564 401 L 566 402 L 565 403 Z
M 548 390 L 544 390 L 543 391 L 541 391 L 540 392 L 538 392 L 537 393 L 535 393 L 534 394 L 532 394 L 528 396 L 525 396 L 524 397 L 522 397 L 521 398 L 516 399 L 513 401 L 511 401 L 510 402 L 508 402 L 507 403 L 505 403 L 504 404 L 502 404 L 500 405 L 500 411 L 501 412 L 499 414 L 494 415 L 492 417 L 491 417 L 488 421 L 488 422 L 493 417 L 495 416 L 502 416 L 503 417 L 499 423 L 499 434 L 500 435 L 500 437 L 505 442 L 502 444 L 495 444 L 493 443 L 489 439 L 489 440 L 487 441 L 485 439 L 484 437 L 484 434 L 483 433 L 483 430 L 484 428 L 483 429 L 481 429 L 477 431 L 474 431 L 472 429 L 471 429 L 468 433 L 467 431 L 466 432 L 466 434 L 464 436 L 463 435 L 464 432 L 462 434 L 460 433 L 456 435 L 455 434 L 453 435 L 452 437 L 451 436 L 451 434 L 452 432 L 449 435 L 448 437 L 448 441 L 447 442 L 448 443 L 448 447 L 450 451 L 452 453 L 456 455 L 464 455 L 473 450 L 476 450 L 480 446 L 481 444 L 483 443 L 485 443 L 486 442 L 488 442 L 489 440 L 491 442 L 491 443 L 492 443 L 494 445 L 496 446 L 501 446 L 502 447 L 502 452 L 503 453 L 503 467 L 504 468 L 504 482 L 505 483 L 505 498 L 506 499 L 506 508 L 507 509 L 510 509 L 508 509 L 507 508 L 507 500 L 506 499 L 506 481 L 505 480 L 505 459 L 504 458 L 504 445 L 505 444 L 507 444 L 508 445 L 514 445 L 516 444 L 520 440 L 521 438 L 521 435 L 522 434 L 522 426 L 521 425 L 521 422 L 519 418 L 516 415 L 515 415 L 513 413 L 503 413 L 502 412 L 502 407 L 504 405 L 507 405 L 513 402 L 517 402 L 518 401 L 520 401 L 521 400 L 523 400 L 524 399 L 529 398 L 534 395 L 539 394 L 542 392 L 544 392 Z
M 508 443 L 509 442 L 511 443 L 510 444 Z
M 510 442 L 511 441 L 512 442 L 511 443 Z
M 511 441 L 512 440 L 513 441 L 512 442 Z
M 512 440 L 513 439 L 514 440 L 513 441 Z
M 513 438 L 514 437 L 515 438 L 514 439 Z
M 454 436 L 455 435 L 456 436 L 455 437 Z
M 468 434 L 469 435 L 469 440 L 470 442 L 473 445 L 475 445 L 476 446 L 475 447 L 472 447 L 468 443 L 467 441 L 467 439 L 466 438 L 466 436 Z
M 458 434 L 459 433 L 460 434 L 459 435 Z
M 516 432 L 517 433 L 515 437 L 514 436 L 514 433 Z
M 470 432 L 471 431 L 472 432 L 471 433 Z
M 471 431 L 472 430 L 474 431 L 473 432 Z
M 515 423 L 516 424 L 516 427 L 515 428 L 514 427 L 514 424 Z
M 517 422 L 518 423 L 518 425 L 517 426 L 516 425 L 516 423 Z
M 502 421 L 504 422 L 504 424 L 505 425 L 505 431 L 504 432 L 504 435 L 503 436 L 502 436 L 500 434 L 500 430 L 499 429 L 500 427 L 500 424 Z
M 505 417 L 506 416 L 507 417 L 506 418 Z
M 506 415 L 507 414 L 510 414 L 514 418 L 514 419 L 515 417 L 517 420 L 517 422 L 516 423 L 515 422 L 514 424 L 512 420 L 509 417 L 507 417 Z
M 584 378 L 586 377 L 589 377 L 590 376 L 592 376 L 598 373 L 600 373 L 601 374 L 601 385 L 602 386 L 602 391 L 603 392 L 603 396 L 604 396 L 604 394 L 603 393 L 603 377 L 602 376 L 602 371 L 598 373 L 593 374 L 590 376 L 588 376 Z
M 577 360 L 576 360 L 576 362 L 575 363 L 574 368 L 570 375 L 571 375 L 573 373 L 573 371 L 574 370 L 574 368 L 576 364 L 576 361 Z
M 571 353 L 570 355 L 570 358 L 568 362 L 568 364 L 565 369 L 564 374 L 561 378 L 563 378 L 564 375 L 567 371 L 567 369 L 569 366 L 569 364 L 570 363 L 570 360 L 571 359 Z
M 565 344 L 564 344 L 564 346 L 563 347 L 563 350 L 562 351 L 562 354 L 561 355 L 561 358 L 560 359 L 560 362 L 559 363 L 559 365 L 550 383 L 554 380 L 555 380 L 555 378 L 557 376 L 560 370 L 560 368 L 562 365 L 562 363 L 563 362 L 563 359 L 564 358 L 564 347 L 565 346 Z
M 507 322 L 506 324 L 506 329 L 507 331 L 509 331 L 510 330 L 510 324 L 508 322 Z
M 508 323 L 510 326 L 510 328 L 508 330 L 507 329 L 507 324 Z
M 581 305 L 581 307 L 584 313 L 588 317 L 588 316 L 584 312 Z
M 514 301 L 518 305 L 519 307 L 518 309 L 514 305 L 512 304 L 512 305 L 513 305 L 514 307 L 516 308 L 518 311 L 516 313 L 514 310 L 511 309 L 511 310 L 512 310 L 515 313 L 516 316 L 515 317 L 511 313 L 509 313 L 508 312 L 507 313 L 505 313 L 503 315 L 503 316 L 505 314 L 508 313 L 512 316 L 514 320 L 514 334 L 513 336 L 509 340 L 507 340 L 504 338 L 508 341 L 511 341 L 513 340 L 516 336 L 516 333 L 517 332 L 517 322 L 516 321 L 516 319 L 515 317 L 517 316 L 517 314 L 519 312 L 522 316 L 523 323 L 521 325 L 520 323 L 519 324 L 519 328 L 520 329 L 519 331 L 521 329 L 523 330 L 523 337 L 522 338 L 522 341 L 520 344 L 519 342 L 518 342 L 516 340 L 514 342 L 513 345 L 517 341 L 518 342 L 518 344 L 515 347 L 517 348 L 514 351 L 515 351 L 519 348 L 520 348 L 520 345 L 523 341 L 523 335 L 524 334 L 524 329 L 525 328 L 525 324 L 523 320 L 523 316 L 520 311 L 520 306 L 515 301 Z
M 516 346 L 517 345 L 518 347 L 517 348 Z
M 603 300 L 602 301 L 603 303 L 599 308 L 600 308 L 603 304 L 605 305 L 605 307 L 603 308 L 602 311 L 600 312 L 600 313 L 601 313 L 606 308 L 606 304 L 604 303 Z
M 508 295 L 504 297 L 499 303 L 497 307 L 497 310 L 496 311 L 496 313 L 496 311 L 500 303 L 506 297 L 508 296 L 514 296 L 516 297 L 522 304 L 525 310 L 525 312 L 526 313 L 526 317 L 527 318 L 527 337 L 526 338 L 526 341 L 525 342 L 525 344 L 521 352 L 517 356 L 513 358 L 515 358 L 516 357 L 518 357 L 523 353 L 523 352 L 525 350 L 528 344 L 528 341 L 529 340 L 529 335 L 530 334 L 530 320 L 529 319 L 529 316 L 528 315 L 528 312 L 527 311 L 527 309 L 524 303 L 522 301 L 522 300 L 519 297 L 515 295 Z
M 610 293 L 609 294 L 609 298 L 608 299 L 608 301 L 609 301 L 610 299 Z
M 606 292 L 606 296 L 605 298 L 606 298 L 607 296 L 607 293 Z
M 610 281 L 608 284 L 606 283 L 605 285 L 606 286 L 605 287 L 606 288 L 606 290 L 608 288 L 610 290 L 610 291 L 612 288 L 612 286 L 611 285 L 611 282 Z
M 592 281 L 590 283 L 590 290 L 591 291 L 591 293 L 593 293 L 595 289 L 595 286 L 594 285 L 594 283 Z
M 592 282 L 594 284 L 594 291 L 593 292 L 591 291 L 591 283 Z
M 592 271 L 590 272 L 586 276 L 587 276 L 588 274 L 592 272 L 595 273 L 598 276 L 599 278 L 599 280 L 600 281 L 600 294 L 599 295 L 599 297 L 594 302 L 591 302 L 588 299 L 587 299 L 590 302 L 592 303 L 597 303 L 601 299 L 601 297 L 602 296 L 602 293 L 603 292 L 603 284 L 602 283 L 602 280 L 601 279 L 601 277 L 600 275 L 597 272 L 594 272 Z
M 595 261 L 597 261 L 599 262 L 603 266 L 603 267 L 605 269 L 605 271 L 604 272 L 600 267 L 595 266 L 596 266 L 602 272 L 604 276 L 604 272 L 606 271 L 608 274 L 608 276 L 609 275 L 608 274 L 607 269 L 605 267 L 604 264 L 599 261 Z
M 596 252 L 595 253 L 592 253 L 591 254 L 589 254 L 583 260 L 580 266 L 579 273 L 580 268 L 583 262 L 590 255 L 592 254 L 599 254 L 601 255 L 608 262 L 612 270 L 612 273 L 613 274 L 613 277 L 614 278 L 614 298 L 613 299 L 613 302 L 612 303 L 611 308 L 609 310 L 608 313 L 603 318 L 598 320 L 602 320 L 606 318 L 611 313 L 615 305 L 615 303 L 616 302 L 616 299 L 617 298 L 617 291 L 618 290 L 618 287 L 617 286 L 617 278 L 616 277 L 616 274 L 615 273 L 614 268 L 611 262 L 605 255 L 601 253 L 598 253 Z
M 666 222 L 672 229 L 685 229 L 686 228 L 712 228 L 713 229 L 740 229 L 741 228 L 744 228 L 745 229 L 763 229 L 764 230 L 764 301 L 768 301 L 769 302 L 771 302 L 771 222 Z
M 565 222 L 452 222 L 451 223 L 451 423 L 452 424 L 455 422 L 458 422 L 458 230 L 459 229 L 476 229 L 477 228 L 479 228 L 480 229 L 556 229 L 557 228 L 561 228 L 561 227 Z
M 598 208 L 608 208 L 609 209 L 615 209 L 616 211 L 618 211 L 620 212 L 622 214 L 626 216 L 629 219 L 630 219 L 641 230 L 641 231 L 645 236 L 648 242 L 649 247 L 650 248 L 650 251 L 651 252 L 651 260 L 650 262 L 651 263 L 651 265 L 650 266 L 648 263 L 648 261 L 647 260 L 647 257 L 646 256 L 646 253 L 645 252 L 645 256 L 646 257 L 646 270 L 645 271 L 644 270 L 644 266 L 643 265 L 642 258 L 641 257 L 640 252 L 638 249 L 638 247 L 632 235 L 630 233 L 628 229 L 625 226 L 623 222 L 619 218 L 617 217 L 616 218 L 612 215 L 608 213 L 603 212 L 602 211 L 591 211 L 590 212 L 587 212 L 584 214 L 582 214 L 580 216 L 576 218 L 570 224 L 570 225 L 565 231 L 559 243 L 559 245 L 557 248 L 557 250 L 556 251 L 556 254 L 555 255 L 555 258 L 554 259 L 552 259 L 548 256 L 545 256 L 544 255 L 537 255 L 536 254 L 517 254 L 515 255 L 526 255 L 527 256 L 529 256 L 535 259 L 537 261 L 538 261 L 547 270 L 547 271 L 549 273 L 550 273 L 550 272 L 547 269 L 547 268 L 540 261 L 539 261 L 537 259 L 538 258 L 541 259 L 547 264 L 548 264 L 552 267 L 553 269 L 552 271 L 552 297 L 553 298 L 553 302 L 552 303 L 550 300 L 550 297 L 549 296 L 548 291 L 545 285 L 546 283 L 547 284 L 544 278 L 542 276 L 541 273 L 538 270 L 538 269 L 531 262 L 530 262 L 528 260 L 527 262 L 518 257 L 505 257 L 504 258 L 502 258 L 498 260 L 491 266 L 491 267 L 488 270 L 488 271 L 484 276 L 481 282 L 481 284 L 479 287 L 479 289 L 478 290 L 478 292 L 476 296 L 476 299 L 475 300 L 475 304 L 474 305 L 474 312 L 473 313 L 473 335 L 474 336 L 474 342 L 475 343 L 475 348 L 476 349 L 477 356 L 478 357 L 479 362 L 481 365 L 481 367 L 485 375 L 487 377 L 487 378 L 494 386 L 491 383 L 491 382 L 487 377 L 482 367 L 482 365 L 479 359 L 479 356 L 478 355 L 477 348 L 476 347 L 476 341 L 475 340 L 475 329 L 474 328 L 474 323 L 475 322 L 475 310 L 476 309 L 476 304 L 477 303 L 477 300 L 478 299 L 478 296 L 479 295 L 479 292 L 480 291 L 481 286 L 486 276 L 492 269 L 492 268 L 499 262 L 505 259 L 509 259 L 510 258 L 516 258 L 517 259 L 520 259 L 529 264 L 527 262 L 529 261 L 532 264 L 533 267 L 540 276 L 545 286 L 545 288 L 546 289 L 546 291 L 547 292 L 547 294 L 548 295 L 548 297 L 550 301 L 550 305 L 551 306 L 551 310 L 552 311 L 552 316 L 553 317 L 553 327 L 554 328 L 554 332 L 553 333 L 553 343 L 552 344 L 552 349 L 551 350 L 550 357 L 549 358 L 549 360 L 548 361 L 547 366 L 543 374 L 541 376 L 539 380 L 531 389 L 533 387 L 534 389 L 535 389 L 545 384 L 546 381 L 548 379 L 551 373 L 551 371 L 553 368 L 553 366 L 554 365 L 554 363 L 556 359 L 556 356 L 557 355 L 557 350 L 558 349 L 558 342 L 559 341 L 559 334 L 557 335 L 555 334 L 555 327 L 554 326 L 554 318 L 553 317 L 553 315 L 554 314 L 556 316 L 557 323 L 558 324 L 559 329 L 561 332 L 561 334 L 563 336 L 565 341 L 567 343 L 568 346 L 571 349 L 571 350 L 579 358 L 587 362 L 589 362 L 590 363 L 593 363 L 594 364 L 598 364 L 600 363 L 595 363 L 594 362 L 591 362 L 581 357 L 574 351 L 574 350 L 571 347 L 568 341 L 566 339 L 563 333 L 563 331 L 561 328 L 561 326 L 560 325 L 560 323 L 558 319 L 557 312 L 556 311 L 556 306 L 555 305 L 555 298 L 554 297 L 554 274 L 555 273 L 555 266 L 556 265 L 556 260 L 557 259 L 557 256 L 558 255 L 558 253 L 559 252 L 559 250 L 560 249 L 561 244 L 566 234 L 568 232 L 570 228 L 580 218 L 581 218 L 585 215 L 587 215 L 591 213 L 595 213 L 596 212 L 598 212 L 599 213 L 604 213 L 605 214 L 608 214 L 612 216 L 614 218 L 617 219 L 625 227 L 625 228 L 628 231 L 628 232 L 630 234 L 632 239 L 634 241 L 636 245 L 636 247 L 638 250 L 638 252 L 639 253 L 639 255 L 641 259 L 641 263 L 642 264 L 642 268 L 643 269 L 643 277 L 644 278 L 644 283 L 643 284 L 643 295 L 642 296 L 642 304 L 641 305 L 641 308 L 640 309 L 640 313 L 639 314 L 638 321 L 635 327 L 635 329 L 633 332 L 633 334 L 630 338 L 629 341 L 625 346 L 625 347 L 615 357 L 609 360 L 611 360 L 613 358 L 616 357 L 627 346 L 627 345 L 631 340 L 636 330 L 636 328 L 638 324 L 638 321 L 640 317 L 640 314 L 641 313 L 641 308 L 642 307 L 642 300 L 643 299 L 643 285 L 644 284 L 645 285 L 645 305 L 644 306 L 644 312 L 643 313 L 643 316 L 642 317 L 642 321 L 641 322 L 641 324 L 640 325 L 640 327 L 639 328 L 638 333 L 633 343 L 628 349 L 628 350 L 621 357 L 620 357 L 617 360 L 614 361 L 612 363 L 609 363 L 607 362 L 607 364 L 608 365 L 608 381 L 609 382 L 609 391 L 610 392 L 610 404 L 606 410 L 606 412 L 605 413 L 605 415 L 604 416 L 604 430 L 605 431 L 606 436 L 609 442 L 611 444 L 612 444 L 614 447 L 614 454 L 615 455 L 615 467 L 616 468 L 616 475 L 615 476 L 613 472 L 613 468 L 612 467 L 612 464 L 610 460 L 610 465 L 609 466 L 609 478 L 610 480 L 609 481 L 609 493 L 608 494 L 609 495 L 609 504 L 610 505 L 610 513 L 612 515 L 612 519 L 613 518 L 613 512 L 615 511 L 616 512 L 616 517 L 617 519 L 617 498 L 618 497 L 619 498 L 619 504 L 620 505 L 620 514 L 621 515 L 621 525 L 667 525 L 668 526 L 667 527 L 663 527 L 662 528 L 629 528 L 628 529 L 622 529 L 621 530 L 619 530 L 618 531 L 615 531 L 614 532 L 615 531 L 625 531 L 626 532 L 625 533 L 622 533 L 621 534 L 605 534 L 604 533 L 605 532 L 609 532 L 611 531 L 611 530 L 613 528 L 615 528 L 617 527 L 617 526 L 616 527 L 613 527 L 612 528 L 610 528 L 607 530 L 605 530 L 601 532 L 598 532 L 597 533 L 594 533 L 590 535 L 587 535 L 586 536 L 583 536 L 582 537 L 580 537 L 579 538 L 581 538 L 582 537 L 584 537 L 585 538 L 582 540 L 572 540 L 571 541 L 566 541 L 565 542 L 561 542 L 560 543 L 557 543 L 556 544 L 552 544 L 551 545 L 548 545 L 547 546 L 544 546 L 543 547 L 539 547 L 538 548 L 534 548 L 533 549 L 528 549 L 527 550 L 525 550 L 524 549 L 526 547 L 525 547 L 523 549 L 521 547 L 521 542 L 522 541 L 525 541 L 526 542 L 526 541 L 529 539 L 531 539 L 535 537 L 539 537 L 540 536 L 536 536 L 535 535 L 535 520 L 534 519 L 534 509 L 531 506 L 532 505 L 534 505 L 535 504 L 539 504 L 540 503 L 542 503 L 543 504 L 542 505 L 547 505 L 548 504 L 557 503 L 558 502 L 561 502 L 562 501 L 565 501 L 566 500 L 569 500 L 570 499 L 574 499 L 575 498 L 578 498 L 579 497 L 582 497 L 583 496 L 587 496 L 588 495 L 591 495 L 592 494 L 595 494 L 596 493 L 603 492 L 607 490 L 606 488 L 606 482 L 604 479 L 604 475 L 603 474 L 603 468 L 602 467 L 602 461 L 601 460 L 601 449 L 600 448 L 600 435 L 599 434 L 599 422 L 598 421 L 598 409 L 597 408 L 597 399 L 596 398 L 596 393 L 593 393 L 593 398 L 594 399 L 594 409 L 595 410 L 595 422 L 596 423 L 596 433 L 597 434 L 597 443 L 598 444 L 598 455 L 599 456 L 599 464 L 600 465 L 600 473 L 601 474 L 601 483 L 602 484 L 602 487 L 598 489 L 595 489 L 594 490 L 590 490 L 589 491 L 586 491 L 585 492 L 582 492 L 581 493 L 578 493 L 577 494 L 573 494 L 569 496 L 560 497 L 559 498 L 556 498 L 555 499 L 551 499 L 550 500 L 547 500 L 546 501 L 542 501 L 541 502 L 538 502 L 537 503 L 534 503 L 533 504 L 530 504 L 529 505 L 525 505 L 521 507 L 518 507 L 523 507 L 524 506 L 528 506 L 529 507 L 527 508 L 527 516 L 528 517 L 528 528 L 529 529 L 529 535 L 527 537 L 525 537 L 524 538 L 520 538 L 519 539 L 519 541 L 520 542 L 520 548 L 521 549 L 524 549 L 525 550 L 569 550 L 570 551 L 570 554 L 572 556 L 572 557 L 574 558 L 573 560 L 573 562 L 572 563 L 572 568 L 572 564 L 573 563 L 573 561 L 575 557 L 577 555 L 580 554 L 582 555 L 585 559 L 585 562 L 586 563 L 586 571 L 584 574 L 583 573 L 583 570 L 584 569 L 584 564 L 582 560 L 580 558 L 577 562 L 577 568 L 579 569 L 577 566 L 578 564 L 580 566 L 580 565 L 578 563 L 578 560 L 579 559 L 580 559 L 583 562 L 583 564 L 584 565 L 584 569 L 583 570 L 583 573 L 580 577 L 578 578 L 576 577 L 573 574 L 572 572 L 572 570 L 570 572 L 569 572 L 561 578 L 558 579 L 556 581 L 555 581 L 553 583 L 552 583 L 550 585 L 549 585 L 538 593 L 535 594 L 533 596 L 532 596 L 530 598 L 529 598 L 527 600 L 526 600 L 515 608 L 510 608 L 506 611 L 505 611 L 503 613 L 487 621 L 484 625 L 484 630 L 486 634 L 489 636 L 491 636 L 493 637 L 497 635 L 508 626 L 509 626 L 515 621 L 516 621 L 521 616 L 521 614 L 523 612 L 524 612 L 526 610 L 527 610 L 529 608 L 530 608 L 532 606 L 533 606 L 535 604 L 536 604 L 538 602 L 542 600 L 545 597 L 546 597 L 548 595 L 549 595 L 551 593 L 552 593 L 554 591 L 555 591 L 557 589 L 558 589 L 560 587 L 564 585 L 567 582 L 568 582 L 570 580 L 571 580 L 575 577 L 577 578 L 580 578 L 581 577 L 584 577 L 585 578 L 587 578 L 591 586 L 593 588 L 590 582 L 591 580 L 594 583 L 596 583 L 598 582 L 601 579 L 601 576 L 602 575 L 603 576 L 604 575 L 606 576 L 606 574 L 607 573 L 607 565 L 606 564 L 606 562 L 605 560 L 603 558 L 601 557 L 599 557 L 600 559 L 600 561 L 601 562 L 601 572 L 600 573 L 599 572 L 599 564 L 598 563 L 597 558 L 594 554 L 590 552 L 588 552 L 587 551 L 588 548 L 587 548 L 586 546 L 584 545 L 581 545 L 580 546 L 575 547 L 574 552 L 576 552 L 577 553 L 575 555 L 574 555 L 572 553 L 572 550 L 571 549 L 572 547 L 575 544 L 577 544 L 578 543 L 580 543 L 584 541 L 587 541 L 588 540 L 594 540 L 595 539 L 599 539 L 600 540 L 599 541 L 596 541 L 593 543 L 598 543 L 599 544 L 598 545 L 600 549 L 598 551 L 600 550 L 601 551 L 603 551 L 608 556 L 610 560 L 610 562 L 611 563 L 611 575 L 610 576 L 609 581 L 608 583 L 602 589 L 601 589 L 604 589 L 606 591 L 606 602 L 607 603 L 607 605 L 605 606 L 605 608 L 607 606 L 613 606 L 614 605 L 622 605 L 623 606 L 619 608 L 613 608 L 612 609 L 609 609 L 608 610 L 599 610 L 598 611 L 591 611 L 587 613 L 585 615 L 585 618 L 584 619 L 582 619 L 580 620 L 578 624 L 576 624 L 572 627 L 568 636 L 566 638 L 564 642 L 564 645 L 565 645 L 565 643 L 567 641 L 568 638 L 572 633 L 573 635 L 569 641 L 569 643 L 566 647 L 568 649 L 571 650 L 573 652 L 576 653 L 578 655 L 582 657 L 583 654 L 581 654 L 579 652 L 579 649 L 581 648 L 584 645 L 586 645 L 587 644 L 589 644 L 593 642 L 602 641 L 604 643 L 604 644 L 608 644 L 612 647 L 614 647 L 616 648 L 619 651 L 619 653 L 622 655 L 620 657 L 619 657 L 617 655 L 617 652 L 615 650 L 613 649 L 611 649 L 611 651 L 610 652 L 610 659 L 609 660 L 609 665 L 608 666 L 608 671 L 607 672 L 607 676 L 616 676 L 617 677 L 620 676 L 620 673 L 621 672 L 621 669 L 622 668 L 624 672 L 624 676 L 626 676 L 626 674 L 625 673 L 625 664 L 624 663 L 624 658 L 625 657 L 625 654 L 626 653 L 635 653 L 636 654 L 636 674 L 635 675 L 633 674 L 633 669 L 632 668 L 632 661 L 631 660 L 631 657 L 631 676 L 639 676 L 639 661 L 638 660 L 638 653 L 639 652 L 647 652 L 648 651 L 659 651 L 660 650 L 667 650 L 669 648 L 673 652 L 673 654 L 675 654 L 677 652 L 681 650 L 685 646 L 686 646 L 687 648 L 684 651 L 683 651 L 680 654 L 679 656 L 678 656 L 678 658 L 681 661 L 683 665 L 687 669 L 687 670 L 689 672 L 691 676 L 693 676 L 691 674 L 691 673 L 689 671 L 687 667 L 684 664 L 684 663 L 681 660 L 680 658 L 681 656 L 692 668 L 687 662 L 688 660 L 694 667 L 694 666 L 692 664 L 693 662 L 696 665 L 697 667 L 696 664 L 693 661 L 692 658 L 690 656 L 689 653 L 687 651 L 687 648 L 688 647 L 689 647 L 696 655 L 696 656 L 699 659 L 701 663 L 704 666 L 704 667 L 707 670 L 707 671 L 711 676 L 720 676 L 715 671 L 713 667 L 709 663 L 709 662 L 702 654 L 702 653 L 699 650 L 699 649 L 696 646 L 695 644 L 693 644 L 690 646 L 688 646 L 687 645 L 690 642 L 693 641 L 695 639 L 688 631 L 683 621 L 680 618 L 674 618 L 673 617 L 673 614 L 672 614 L 670 612 L 670 610 L 669 608 L 665 606 L 655 606 L 654 607 L 651 607 L 650 606 L 649 607 L 644 607 L 642 606 L 637 601 L 637 597 L 636 596 L 636 591 L 635 590 L 639 586 L 642 580 L 642 578 L 643 577 L 643 572 L 644 571 L 643 569 L 643 562 L 644 561 L 646 565 L 646 574 L 645 575 L 645 579 L 644 580 L 644 582 L 641 586 L 644 586 L 646 585 L 651 580 L 652 578 L 652 576 L 653 575 L 653 573 L 654 572 L 654 565 L 653 564 L 652 559 L 650 557 L 650 556 L 643 549 L 645 547 L 645 545 L 646 544 L 646 540 L 645 539 L 645 537 L 649 535 L 653 535 L 654 534 L 657 534 L 658 533 L 662 533 L 663 532 L 666 532 L 667 531 L 670 531 L 671 530 L 674 530 L 675 529 L 678 529 L 679 528 L 682 528 L 683 527 L 686 527 L 687 526 L 690 526 L 692 525 L 692 515 L 691 514 L 691 499 L 690 498 L 690 481 L 689 480 L 689 464 L 688 463 L 688 451 L 691 446 L 693 447 L 695 447 L 698 445 L 700 445 L 702 447 L 734 463 L 736 465 L 738 465 L 752 472 L 788 472 L 789 471 L 823 471 L 824 470 L 840 470 L 844 468 L 850 462 L 851 460 L 851 458 L 852 457 L 852 452 L 851 451 L 851 439 L 850 438 L 850 427 L 849 426 L 849 415 L 848 414 L 848 404 L 847 403 L 847 393 L 846 392 L 846 383 L 845 382 L 845 371 L 844 370 L 844 358 L 843 357 L 843 347 L 842 346 L 842 334 L 841 333 L 841 324 L 840 323 L 840 321 L 839 319 L 834 314 L 832 313 L 825 313 L 824 312 L 815 312 L 814 311 L 805 311 L 804 310 L 796 310 L 795 309 L 786 309 L 785 308 L 776 308 L 775 307 L 768 307 L 767 306 L 755 306 L 754 305 L 744 305 L 743 304 L 725 304 L 721 306 L 717 311 L 706 334 L 704 336 L 693 359 L 691 361 L 689 365 L 689 368 L 688 369 L 689 371 L 689 379 L 684 384 L 683 386 L 682 386 L 678 382 L 677 380 L 677 372 L 676 371 L 676 368 L 673 368 L 672 367 L 656 367 L 655 366 L 646 366 L 645 365 L 632 365 L 631 364 L 623 364 L 622 363 L 623 362 L 637 362 L 638 363 L 644 363 L 645 362 L 647 362 L 653 359 L 656 356 L 657 356 L 665 348 L 665 347 L 668 344 L 676 328 L 676 326 L 678 322 L 678 319 L 679 318 L 679 315 L 680 314 L 680 310 L 681 309 L 681 303 L 682 302 L 682 277 L 681 276 L 681 269 L 680 268 L 680 264 L 679 263 L 679 259 L 678 258 L 678 255 L 677 254 L 677 252 L 676 251 L 675 246 L 673 243 L 673 241 L 671 239 L 668 232 L 662 225 L 662 224 L 652 215 L 649 214 L 647 212 L 645 212 L 642 210 L 640 210 L 639 209 L 636 209 L 635 208 L 614 208 L 613 207 L 611 207 L 610 208 Z
M 690 660 L 691 659 L 693 661 L 693 662 L 692 663 L 690 661 Z
M 686 660 L 687 659 L 688 660 L 687 661 Z
M 689 659 L 690 658 L 691 659 L 690 660 Z
M 688 657 L 689 656 L 690 657 L 689 658 Z
M 684 657 L 685 656 L 687 658 L 687 659 L 686 660 L 684 658 Z
M 683 656 L 684 655 L 685 656 L 684 657 Z
M 687 655 L 688 654 L 689 656 L 688 657 Z
M 686 654 L 687 653 L 688 654 L 687 655 Z
M 685 653 L 686 652 L 687 653 L 686 654 Z
M 623 648 L 624 647 L 625 648 L 624 649 Z
M 686 646 L 687 645 L 688 646 L 687 647 Z
M 677 644 L 678 645 L 675 648 L 674 650 L 672 648 L 672 647 L 674 646 L 675 644 Z
M 677 644 L 678 643 L 679 644 L 678 645 Z
M 678 643 L 679 642 L 680 643 L 679 644 Z
M 584 643 L 585 642 L 586 643 L 585 644 Z
M 603 642 L 604 641 L 606 642 L 605 643 Z
M 679 642 L 680 640 L 682 641 L 680 643 Z
M 656 634 L 657 635 L 657 644 L 656 645 L 655 644 L 655 638 L 654 637 L 654 636 Z
M 489 633 L 490 632 L 491 633 L 490 634 Z
M 588 632 L 589 631 L 591 632 L 590 633 Z
M 572 632 L 573 631 L 574 633 L 573 634 Z
M 669 630 L 669 646 L 668 647 L 665 647 L 664 648 L 649 648 L 648 647 L 649 646 L 653 646 L 654 645 L 660 645 L 660 639 L 659 638 L 660 637 L 659 636 L 660 635 L 659 634 L 654 634 L 653 633 L 654 632 L 657 632 L 658 631 L 666 631 L 668 629 Z
M 578 629 L 580 630 L 580 632 L 582 632 L 583 633 L 583 636 L 582 637 L 582 640 L 581 641 L 581 645 L 579 648 L 577 647 L 578 646 L 578 644 L 576 646 L 574 644 L 575 643 L 574 638 L 575 637 L 576 639 L 575 634 L 576 633 L 578 635 L 578 633 L 577 632 L 577 630 Z
M 627 630 L 628 628 L 641 628 L 642 627 L 660 627 L 661 628 L 659 630 L 637 630 L 636 631 L 628 631 Z
M 487 627 L 490 631 L 489 633 L 486 630 L 486 628 Z
M 576 626 L 577 628 L 574 632 L 573 630 Z
M 673 624 L 675 625 L 677 629 L 680 632 L 680 633 L 684 638 L 684 639 L 682 641 L 681 640 L 681 638 L 678 635 L 678 634 L 674 631 L 674 632 L 679 637 L 680 639 L 679 641 L 676 638 L 676 637 L 674 635 L 673 635 L 675 637 L 675 638 L 678 642 L 677 644 L 674 641 L 675 643 L 674 645 L 673 645 L 671 643 L 671 639 L 672 638 L 671 636 L 671 628 Z
M 594 620 L 595 619 L 596 620 L 595 621 Z
M 591 619 L 592 620 L 592 622 L 590 625 L 591 627 L 583 631 L 581 628 L 581 622 L 582 621 L 585 621 L 586 620 L 589 620 Z
M 595 619 L 596 618 L 598 619 L 597 620 Z
M 619 618 L 617 622 L 617 624 L 616 625 L 616 628 L 615 629 L 615 633 L 614 634 L 614 637 L 612 639 L 600 639 L 599 640 L 596 640 L 595 641 L 593 641 L 589 643 L 586 643 L 585 642 L 587 640 L 589 640 L 590 639 L 593 639 L 594 638 L 597 638 L 598 637 L 606 637 L 607 636 L 611 636 L 611 633 L 612 632 L 612 630 L 610 630 L 609 631 L 602 631 L 601 632 L 593 632 L 592 631 L 593 630 L 598 630 L 599 629 L 602 629 L 603 628 L 612 627 L 613 625 L 611 625 L 610 626 L 604 626 L 603 627 L 593 627 L 592 626 L 593 625 L 600 625 L 601 624 L 606 624 L 607 623 L 611 623 L 612 622 L 614 622 L 618 617 Z
M 621 614 L 624 614 L 625 616 L 627 617 L 628 619 L 628 625 L 627 626 L 626 625 L 625 620 L 620 615 Z
M 609 614 L 610 613 L 614 613 L 615 614 L 614 615 L 610 615 Z
M 617 613 L 621 611 L 634 611 L 635 612 L 634 613 L 627 613 L 626 614 L 624 614 L 623 613 L 621 614 L 618 614 Z
M 610 615 L 609 616 L 602 616 L 601 617 L 592 617 L 591 618 L 589 618 L 588 617 L 588 615 L 589 614 L 593 612 L 595 612 L 596 611 L 599 611 L 600 610 L 604 610 L 605 611 L 605 613 L 608 613 Z
M 510 608 L 511 609 L 511 613 L 512 615 L 516 618 L 515 619 L 513 619 L 510 616 L 508 612 Z
M 612 591 L 613 593 L 611 594 L 611 595 L 612 596 L 612 599 L 613 600 L 612 602 L 613 603 L 609 605 L 607 603 L 607 592 L 608 591 Z
M 610 589 L 611 588 L 612 589 L 611 590 Z
M 594 580 L 596 577 L 598 578 L 598 580 L 597 581 L 595 581 Z
M 582 574 L 583 573 L 584 574 L 583 575 Z
M 599 572 L 600 573 L 600 575 L 599 576 L 598 575 L 598 573 Z
M 603 561 L 605 563 L 606 565 L 606 567 L 607 568 L 607 571 L 606 572 L 606 575 L 605 576 L 603 574 L 604 572 L 603 570 L 603 566 L 602 565 L 602 562 Z
M 643 558 L 644 559 L 644 561 L 643 562 L 642 561 L 642 559 Z
M 641 557 L 642 556 L 643 558 L 642 559 Z
M 617 555 L 619 557 L 620 559 L 620 561 L 621 562 L 621 565 L 622 566 L 622 573 L 621 574 L 621 578 L 620 579 L 620 581 L 619 583 L 613 589 L 612 589 L 611 588 L 616 583 L 616 581 L 618 578 L 618 575 L 619 574 L 619 564 L 618 563 L 618 560 L 616 557 Z
M 592 556 L 593 555 L 594 556 L 593 557 Z
M 640 555 L 641 554 L 642 556 L 641 557 Z
M 615 555 L 616 554 L 617 555 L 616 556 Z
M 591 555 L 592 554 L 593 555 L 592 556 Z
M 639 554 L 640 553 L 641 554 L 640 555 Z
M 614 554 L 615 553 L 616 554 L 615 555 Z
M 590 554 L 591 553 L 592 554 L 591 555 Z
M 638 553 L 639 552 L 640 553 L 639 554 Z
M 574 550 L 575 549 L 576 550 L 575 551 Z
M 600 548 L 601 547 L 602 548 L 601 549 Z
M 582 548 L 584 547 L 585 549 L 584 550 Z
M 582 546 L 583 547 L 581 549 L 580 549 L 579 548 L 581 546 Z
M 599 539 L 600 538 L 601 539 L 600 540 Z
M 603 537 L 606 537 L 607 538 L 607 547 L 608 548 L 607 550 L 603 550 L 602 549 L 605 547 L 603 543 L 604 541 L 602 539 Z
M 646 533 L 642 535 L 635 535 L 634 534 L 635 533 L 641 533 L 642 532 L 645 532 Z
M 625 531 L 626 530 L 627 531 L 626 532 Z
M 637 507 L 638 506 L 639 507 L 638 508 Z
M 633 502 L 634 501 L 635 503 L 634 504 Z
M 667 504 L 667 506 L 666 507 L 660 510 L 656 510 L 654 509 L 650 505 L 651 503 L 658 505 L 659 504 L 658 503 L 660 502 L 663 498 L 665 501 L 665 503 Z
M 632 491 L 633 492 L 633 496 L 634 497 L 634 501 L 633 502 L 631 498 L 631 492 Z
M 617 489 L 618 490 L 618 493 L 617 494 L 616 493 L 616 490 Z
M 662 484 L 664 485 L 663 486 L 663 492 L 664 494 L 667 497 L 665 499 L 664 497 L 661 494 L 661 492 L 660 491 L 660 487 Z
M 661 485 L 659 487 L 659 489 L 657 491 L 651 491 L 649 493 L 648 492 L 648 488 L 650 486 L 652 485 L 655 485 L 659 483 Z
M 669 482 L 671 482 L 674 485 L 675 487 L 675 492 L 672 495 L 668 495 L 665 492 L 665 490 L 664 489 L 665 487 L 665 485 Z
M 638 480 L 641 480 L 645 484 L 646 486 L 646 489 L 645 490 L 644 489 L 644 487 L 643 485 L 641 483 L 640 484 L 640 486 L 642 488 L 640 490 L 640 491 L 642 492 L 641 494 L 636 494 L 633 491 L 632 489 L 632 486 L 633 484 L 636 481 Z
M 616 476 L 617 477 L 617 481 L 616 482 L 615 481 L 615 477 Z
M 735 462 L 736 461 L 737 462 L 736 463 Z
M 734 461 L 735 460 L 736 461 L 735 462 Z
M 675 457 L 676 456 L 677 457 L 676 458 Z
M 662 453 L 659 455 L 652 455 L 651 454 L 652 453 L 658 453 L 659 452 L 661 452 Z
M 649 453 L 650 452 L 652 453 L 651 454 Z
M 681 451 L 682 453 L 678 457 L 677 457 L 676 456 Z
M 661 452 L 662 451 L 664 452 L 663 453 Z
M 648 452 L 649 451 L 650 452 L 649 453 Z
M 663 451 L 664 450 L 665 451 L 664 452 Z
M 647 451 L 648 450 L 649 451 L 648 452 Z
M 664 450 L 665 449 L 666 450 L 665 451 Z
M 679 446 L 680 445 L 681 446 L 680 447 Z
M 676 445 L 677 444 L 678 445 L 677 446 Z
M 680 444 L 681 443 L 682 444 L 681 445 Z
M 677 443 L 678 442 L 679 444 L 678 445 Z
M 693 442 L 694 441 L 695 442 L 694 443 Z
M 674 442 L 675 441 L 676 443 L 675 444 Z
M 681 441 L 682 440 L 683 442 L 682 443 Z
M 692 440 L 693 439 L 694 441 L 693 442 Z
M 644 428 L 645 429 L 645 431 L 642 437 L 642 444 L 640 445 L 638 442 L 638 440 Z
M 651 427 L 657 427 L 658 428 L 660 427 L 661 428 L 661 430 L 663 432 L 665 436 L 665 440 L 666 441 L 665 442 L 665 447 L 660 452 L 658 452 L 657 453 L 653 453 L 651 452 L 646 447 L 644 443 L 644 434 L 646 432 L 646 431 L 649 428 Z
M 652 434 L 650 436 L 650 442 L 653 445 L 656 445 L 657 444 L 657 438 L 654 434 Z
M 658 427 L 659 426 L 660 427 L 659 428 Z
M 656 426 L 657 425 L 659 426 L 658 427 Z
M 686 422 L 687 423 L 687 429 L 686 430 L 686 434 L 685 435 L 685 438 L 683 441 L 682 440 L 682 438 L 683 437 L 683 434 L 684 433 L 684 423 Z
M 665 417 L 666 416 L 668 417 L 667 418 Z
M 845 415 L 846 416 L 846 423 L 845 424 L 844 423 L 844 416 Z
M 663 415 L 664 416 L 664 420 L 663 421 L 665 423 L 665 424 L 665 422 L 666 421 L 668 423 L 669 422 L 672 422 L 673 423 L 672 424 L 674 424 L 674 421 L 675 420 L 676 421 L 676 435 L 674 438 L 674 440 L 671 446 L 667 450 L 665 449 L 666 448 L 666 446 L 668 444 L 668 438 L 667 437 L 667 435 L 664 429 L 659 424 L 660 422 L 659 421 L 660 420 L 660 418 L 662 417 Z
M 676 411 L 677 410 L 678 412 L 677 413 Z
M 638 411 L 639 410 L 645 416 L 643 417 L 638 412 Z
M 637 409 L 638 408 L 639 409 L 638 410 Z
M 636 406 L 637 405 L 638 407 L 637 408 Z
M 619 402 L 620 401 L 621 403 L 620 404 Z
M 672 396 L 673 395 L 674 396 L 673 397 Z
M 670 395 L 675 401 L 675 402 L 675 400 L 674 398 L 675 397 L 677 399 L 677 400 L 679 402 L 679 404 L 681 408 L 681 411 L 682 412 L 682 420 L 683 421 L 683 434 L 682 435 L 681 440 L 679 443 L 678 442 L 678 440 L 679 439 L 679 437 L 680 436 L 680 433 L 681 432 L 680 430 L 680 432 L 679 433 L 679 437 L 677 441 L 676 442 L 675 441 L 675 439 L 677 435 L 677 431 L 678 430 L 678 419 L 679 418 L 679 415 L 678 414 L 678 410 L 677 409 L 677 406 L 676 404 L 676 406 L 677 407 L 677 410 L 676 411 L 674 408 L 673 403 L 669 397 Z
M 638 395 L 639 396 L 639 403 L 638 404 L 636 402 L 636 397 Z
M 622 396 L 623 395 L 624 397 L 623 398 Z
M 668 395 L 669 394 L 670 395 L 669 396 Z
M 673 394 L 674 393 L 680 399 L 680 400 L 679 401 L 673 395 Z
M 667 394 L 668 393 L 669 394 L 668 395 Z
M 662 393 L 663 393 L 669 399 L 669 400 L 671 402 L 673 406 L 674 411 L 675 412 L 674 414 L 673 414 L 672 412 L 670 412 L 670 415 L 669 416 L 667 414 L 666 414 L 664 416 L 663 415 L 664 413 L 664 411 L 665 410 L 665 404 L 664 403 L 664 398 L 661 394 Z
M 623 394 L 624 393 L 625 395 L 624 396 Z
M 672 393 L 673 392 L 674 393 L 673 394 Z
M 666 393 L 667 392 L 668 393 L 667 394 Z
M 671 392 L 672 391 L 673 392 L 672 393 Z
M 665 392 L 666 391 L 667 392 L 666 393 Z
M 670 391 L 671 390 L 672 391 L 671 392 Z
M 649 390 L 656 390 L 658 391 L 660 393 L 660 395 L 663 401 L 663 410 L 662 412 L 657 417 L 655 417 L 654 418 L 651 418 L 646 415 L 646 414 L 643 411 L 643 408 L 641 404 L 641 402 L 642 401 L 642 398 L 643 396 Z
M 650 394 L 648 396 L 648 399 L 650 398 L 651 400 L 654 403 L 655 406 L 653 408 L 651 408 L 650 407 L 652 409 L 653 409 L 655 407 L 655 404 L 652 399 L 653 397 L 653 395 Z
M 669 390 L 670 389 L 671 390 L 670 391 Z
M 668 389 L 669 388 L 670 389 L 669 390 Z
M 534 387 L 535 386 L 536 387 L 535 388 Z
M 535 386 L 536 385 L 537 386 L 536 387 Z
M 688 384 L 690 385 L 690 396 L 689 397 L 686 393 L 686 391 L 685 390 Z
M 536 385 L 537 384 L 538 385 L 537 386 Z
M 758 383 L 759 382 L 761 383 L 760 384 Z
M 539 381 L 540 383 L 538 385 L 537 383 Z
M 665 380 L 667 380 L 669 381 L 671 383 L 675 385 L 680 390 L 680 391 L 683 394 L 683 395 L 685 397 L 687 401 L 687 403 L 689 407 L 689 410 L 690 411 L 690 418 L 691 419 L 691 427 L 690 428 L 690 435 L 689 436 L 689 439 L 688 440 L 688 442 L 684 450 L 682 452 L 681 450 L 684 444 L 684 442 L 686 438 L 686 434 L 687 433 L 687 416 L 686 415 L 686 411 L 685 410 L 684 405 L 682 402 L 682 400 L 680 398 L 679 395 L 677 393 L 675 389 L 671 385 L 665 382 L 664 381 Z
M 539 381 L 540 380 L 541 381 L 540 382 Z
M 662 380 L 663 379 L 665 380 L 664 381 Z
M 540 380 L 541 379 L 542 380 L 541 381 Z
M 749 376 L 750 375 L 751 376 L 750 377 Z
M 763 375 L 764 374 L 766 375 L 765 376 Z
M 750 375 L 751 374 L 753 375 L 752 376 Z
M 765 374 L 766 373 L 768 374 L 767 375 Z
M 650 373 L 661 373 L 662 374 L 661 375 L 651 375 L 643 379 L 637 385 L 637 386 L 633 391 L 631 395 L 630 400 L 629 401 L 629 404 L 628 405 L 628 410 L 627 411 L 627 423 L 628 424 L 628 429 L 629 430 L 629 433 L 631 436 L 632 441 L 635 447 L 638 450 L 638 451 L 648 461 L 649 461 L 651 463 L 653 464 L 655 464 L 656 465 L 663 466 L 664 467 L 663 468 L 661 468 L 657 470 L 644 470 L 643 469 L 640 469 L 639 468 L 637 468 L 633 466 L 631 464 L 630 464 L 626 460 L 627 459 L 634 460 L 633 459 L 631 459 L 629 458 L 625 454 L 624 454 L 621 450 L 618 449 L 615 446 L 615 445 L 611 440 L 608 434 L 608 431 L 607 430 L 607 415 L 608 414 L 608 411 L 610 408 L 610 406 L 614 398 L 616 396 L 618 392 L 624 386 L 626 385 L 627 386 L 627 387 L 624 390 L 619 400 L 619 402 L 618 403 L 618 406 L 617 408 L 618 406 L 618 404 L 619 403 L 620 404 L 620 406 L 621 404 L 621 398 L 622 397 L 623 399 L 627 390 L 639 378 L 640 378 L 644 375 L 646 375 Z
M 617 400 L 617 401 L 615 403 L 613 407 L 613 410 L 614 405 L 616 403 Z
M 714 324 L 716 327 L 716 337 L 713 339 L 712 342 L 710 344 L 707 351 L 705 353 L 703 358 L 701 360 L 694 374 L 696 373 L 696 372 L 700 367 L 701 364 L 707 356 L 714 342 L 714 340 L 716 338 L 717 339 L 717 347 L 718 348 L 718 360 L 719 361 L 719 371 L 720 372 L 720 383 L 721 384 L 721 393 L 722 394 L 722 407 L 723 408 L 723 420 L 724 421 L 724 432 L 725 433 L 725 444 L 726 445 L 726 449 L 728 453 L 735 460 L 734 461 L 727 458 L 725 456 L 718 453 L 716 451 L 705 446 L 703 444 L 701 443 L 699 443 L 696 440 L 696 438 L 695 437 L 695 416 L 694 415 L 694 402 L 693 401 L 693 388 L 692 387 L 692 378 L 691 377 L 691 367 L 693 365 L 698 354 L 700 352 Z
M 718 412 L 716 412 L 712 414 L 709 414 L 705 416 L 702 416 L 701 417 L 699 417 L 702 417 L 703 416 L 707 416 L 708 415 L 715 414 Z
M 717 403 L 711 406 L 709 406 L 703 409 L 701 409 L 698 411 L 700 410 L 702 410 L 703 409 L 705 409 L 706 408 L 708 408 L 709 407 L 711 407 L 717 404 Z
M 712 393 L 710 393 L 708 394 L 706 396 L 703 397 L 701 399 L 700 399 L 696 402 L 698 402 L 700 401 L 702 399 L 703 399 L 705 397 L 706 397 L 708 395 Z
M 717 375 L 715 375 L 709 380 L 708 380 L 707 382 L 696 392 L 696 393 L 698 392 L 708 383 L 709 383 L 713 379 L 714 379 Z
M 716 354 L 715 354 L 713 356 L 713 357 L 711 359 L 711 360 L 709 362 L 709 363 L 707 365 L 707 366 L 705 368 L 705 369 L 703 371 L 701 375 L 696 381 L 696 383 L 697 381 L 705 372 L 707 368 L 710 365 L 710 364 L 714 359 Z
M 721 310 L 722 311 L 721 313 L 721 326 L 722 327 L 722 336 L 723 337 L 723 349 L 724 350 L 724 360 L 725 361 L 725 370 L 726 371 L 726 378 L 727 379 L 734 379 L 735 380 L 737 380 L 741 384 L 741 386 L 742 387 L 742 394 L 743 395 L 743 406 L 744 407 L 744 417 L 745 418 L 745 430 L 746 431 L 746 436 L 743 440 L 738 440 L 737 441 L 730 441 L 730 442 L 736 442 L 737 441 L 744 441 L 746 440 L 747 441 L 749 441 L 750 442 L 753 442 L 754 443 L 756 443 L 760 445 L 763 445 L 764 446 L 766 446 L 770 448 L 773 448 L 777 450 L 780 450 L 781 451 L 783 451 L 784 452 L 786 452 L 790 454 L 793 454 L 794 455 L 796 455 L 797 456 L 799 456 L 803 458 L 806 458 L 810 460 L 813 460 L 814 461 L 816 461 L 817 462 L 819 462 L 820 463 L 822 463 L 823 464 L 828 465 L 829 466 L 828 467 L 809 467 L 808 468 L 774 468 L 773 469 L 753 469 L 743 464 L 739 460 L 738 460 L 730 452 L 728 448 L 728 437 L 727 436 L 727 425 L 726 424 L 726 410 L 725 409 L 725 398 L 724 397 L 724 387 L 723 386 L 723 376 L 722 375 L 722 365 L 721 364 L 721 351 L 720 350 L 720 340 L 719 339 L 719 325 L 718 324 L 718 314 Z
M 728 394 L 728 407 L 729 408 L 729 423 L 730 424 L 730 427 L 733 424 L 733 412 L 732 411 L 732 399 L 731 398 L 731 396 Z
M 721 310 L 722 309 L 723 310 L 722 311 Z
M 722 309 L 723 308 L 725 309 L 724 310 Z
M 724 308 L 727 306 L 735 306 L 736 307 L 746 307 L 747 308 L 757 308 L 758 309 L 766 309 L 767 310 L 777 310 L 778 311 L 787 311 L 788 312 L 798 312 L 799 313 L 808 313 L 809 314 L 819 314 L 820 315 L 830 315 L 834 318 L 835 318 L 838 323 L 838 331 L 839 332 L 839 343 L 840 344 L 840 354 L 841 355 L 841 366 L 842 367 L 842 379 L 843 380 L 843 392 L 844 393 L 844 403 L 845 404 L 845 414 L 844 415 L 843 414 L 843 406 L 842 405 L 842 397 L 841 396 L 841 388 L 840 387 L 840 379 L 839 378 L 839 376 L 835 376 L 834 377 L 825 378 L 824 379 L 821 379 L 820 380 L 816 380 L 815 381 L 806 382 L 805 383 L 802 383 L 801 384 L 792 385 L 791 386 L 788 386 L 787 387 L 783 387 L 782 388 L 778 388 L 777 389 L 774 389 L 773 390 L 768 390 L 767 391 L 763 391 L 762 392 L 759 392 L 758 393 L 755 393 L 754 392 L 757 390 L 759 390 L 762 388 L 764 388 L 769 385 L 774 384 L 779 381 L 781 381 L 784 379 L 786 379 L 789 377 L 791 377 L 799 373 L 801 373 L 807 370 L 809 370 L 802 371 L 801 372 L 799 372 L 795 374 L 788 375 L 787 376 L 785 376 L 781 378 L 778 378 L 775 380 L 772 380 L 771 381 L 768 381 L 767 382 L 764 382 L 763 383 L 761 383 L 760 382 L 765 379 L 767 379 L 772 376 L 774 376 L 779 373 L 781 373 L 786 370 L 788 370 L 791 368 L 793 368 L 809 360 L 811 360 L 813 359 L 811 359 L 810 360 L 805 361 L 802 363 L 800 363 L 799 364 L 794 365 L 791 367 L 789 367 L 788 368 L 786 368 L 785 369 L 783 369 L 782 370 L 780 370 L 779 371 L 777 371 L 776 372 L 774 372 L 770 374 L 768 374 L 767 373 L 769 371 L 771 371 L 780 366 L 782 366 L 814 350 L 812 351 L 810 351 L 803 355 L 801 355 L 796 358 L 794 358 L 786 362 L 781 363 L 767 370 L 762 371 L 755 375 L 753 375 L 752 374 L 756 371 L 759 370 L 761 368 L 764 367 L 766 365 L 769 364 L 771 362 L 774 361 L 776 359 L 779 358 L 781 356 L 784 355 L 786 353 L 789 352 L 791 350 L 794 349 L 796 347 L 801 345 L 803 343 L 806 342 L 808 340 L 816 336 L 821 332 L 826 330 L 828 328 L 834 325 L 835 323 L 832 319 L 829 319 L 828 318 L 818 318 L 817 317 L 807 317 L 806 316 L 795 316 L 794 315 L 785 315 L 784 314 L 775 314 L 774 313 L 766 313 L 765 312 L 755 312 L 754 311 L 747 311 L 746 310 L 738 310 L 737 309 L 725 309 Z
M 544 282 L 545 281 L 546 283 L 545 284 Z
M 645 272 L 646 271 L 647 273 L 646 274 Z
M 549 264 L 551 263 L 553 265 L 553 266 L 552 267 Z
M 548 263 L 549 262 L 550 263 L 549 264 Z
M 547 262 L 548 261 L 549 262 L 548 263 Z
M 535 258 L 536 257 L 538 258 L 537 259 Z
M 534 257 L 535 256 L 536 257 L 535 258 Z
M 621 222 L 622 221 L 623 222 L 622 223 Z
M 618 220 L 620 219 L 622 221 L 620 222 Z
M 617 219 L 618 218 L 619 219 L 618 220 Z
M 616 218 L 617 217 L 618 218 L 617 219 Z
M 633 211 L 635 212 L 637 212 L 639 214 L 643 216 L 651 224 L 651 225 L 655 230 L 659 238 L 659 240 L 661 244 L 661 247 L 663 251 L 663 256 L 664 257 L 664 264 L 663 265 L 662 264 L 662 260 L 661 259 L 661 254 L 660 253 L 660 251 L 659 250 L 659 248 L 658 247 L 657 242 L 651 230 L 649 228 L 649 227 L 638 216 L 637 216 L 632 212 Z
M 630 211 L 631 210 L 633 211 L 632 212 Z
M 620 210 L 623 210 L 624 211 L 626 211 L 630 214 L 636 217 L 646 227 L 646 228 L 650 233 L 654 241 L 654 243 L 655 244 L 655 246 L 657 250 L 657 253 L 658 254 L 658 256 L 657 257 L 657 264 L 656 265 L 654 261 L 654 255 L 653 254 L 652 249 L 650 246 L 649 241 L 646 235 L 644 233 L 642 229 L 639 226 L 639 225 L 633 219 L 632 219 L 629 216 L 620 212 L 619 211 Z
M 617 210 L 618 209 L 619 210 L 618 211 Z" fill="#FFFFFF" fill-rule="evenodd"/>
</svg>
